<svg width="500" height="500" viewBox="0 0 500 500" fill="none" xmlns="http://www.w3.org/2000/svg">
<circle cx="250" cy="250" r="250" fill="#9a6412"/>
<path fill-rule="evenodd" clip-rule="evenodd" d="M302.03 329.979C275.26 349.7 242.027 358.578 208.989 354.833C175.951 351.089 145.548 334.999 123.871 309.787C102.193 284.575 90.8428 252.104 92.0934 218.878C93.3439 185.652 107.103 154.125 130.614 130.614C154.125 107.103 185.652 93.3439 218.878 92.0934C252.104 90.8428 284.576 102.193 309.787 123.871C334.999 145.548 351.089 175.951 354.833 208.989C358.578 242.027 349.7 275.26 329.979 302.03L402.621 374.645C404.564 376.456 406.122 378.639 407.203 381.065C408.284 383.491 408.865 386.109 408.912 388.764C408.959 391.42 408.47 394.057 407.476 396.519C406.481 398.982 405.001 401.219 403.123 403.097C401.245 404.974 399.008 406.455 396.546 407.449C394.084 408.444 391.446 408.932 388.791 408.886C386.136 408.839 383.517 408.258 381.091 407.177C378.665 406.096 376.482 404.537 374.672 402.595L302.03 329.979ZM316.137 223.825C316.137 248.301 306.414 271.774 289.107 289.08C271.8 306.387 248.327 316.11 223.851 316.11C199.376 316.11 175.903 306.387 158.596 289.08C141.289 271.774 131.566 248.301 131.566 223.825C131.566 199.349 141.289 175.876 158.596 158.57C175.903 141.263 199.376 131.54 223.851 131.54C248.327 131.54 271.8 141.263 289.107 158.57C306.414 175.876 316.137 199.349 316.137 223.825Z" fill="white"/>
</svg>
