<svg width="500" height="500" viewBox="0 0 500 500" fill="none" xmlns="http://www.w3.org/2000/svg">
<circle cx="250" cy="250" r="250" fill="#9a6412"/>
<path fill-rule="evenodd" clip-rule="evenodd" d="M390.819 198.058C390.819 246.939 351.022 286.567 301.944 286.567C293 286.567 272.609 284.514 262.695 276.273L250.292 288.62C242.994 295.891 244.963 298.028 248.211 301.544C249.561 303.02 251.136 304.722 252.359 307.155C252.359 307.155 262.695 321.555 252.359 335.969C246.158 344.195 228.791 355.713 208.963 335.969L204.828 340.075C204.828 340.075 217.217 354.489 206.895 368.903C200.694 377.13 184.156 385.356 169.686 370.956L155.23 385.356C145.302 395.242 133.18 389.477 128.37 385.356L115.953 373.009C104.38 361.478 111.13 348.991 115.953 344.181L223.419 237.166C223.419 237.166 213.083 220.712 213.083 198.072C213.083 149.191 252.88 109.562 301.958 109.562C351.036 109.562 390.819 149.191 390.819 198.058ZM301.958 228.939C310.161 228.954 318.033 225.711 323.845 219.922C329.658 214.134 332.933 206.275 332.952 198.072C332.944 194.009 332.137 189.988 330.575 186.237C329.013 182.486 326.728 179.08 323.85 176.212C320.972 173.345 317.558 171.072 313.801 169.524C310.045 167.976 306.021 167.183 301.958 167.191C297.895 167.183 293.871 167.976 290.114 169.524C286.358 171.072 282.943 173.345 280.065 176.212C277.187 179.08 274.902 182.486 273.341 186.237C271.779 189.988 270.971 194.009 270.964 198.072C270.983 206.275 274.258 214.134 280.07 219.922C285.882 225.711 293.755 228.954 301.958 228.939Z" fill="white"/>
</svg>
