<svg width="500" height="500" viewBox="0 0 500 500" fill="none" xmlns="http://www.w3.org/2000/svg">
<circle cx="250" cy="250" r="250" fill="#9a6412"/>
<path d="M92 162.156H408.406C408.406 142.765 392.641 127 373.25 127H127.156C107.765 127 92 142.765 92 162.156ZM92 179.734V337.938C92 357.328 107.765 373.094 127.156 373.094H373.25C392.641 373.094 408.406 357.328 408.406 337.938V179.734H92ZM127.156 332.06C127.156 315.855 140.285 302.781 156.435 302.781H220.87C237.074 302.781 250.148 315.91 250.148 332.06C250.148 335.301 247.511 337.938 244.271 337.938H133.034C129.793 337.938 127.156 335.301 127.156 332.06ZM188.68 214.891C198.004 214.891 206.946 218.595 213.539 225.188C220.132 231.781 223.836 240.723 223.836 250.047C223.836 259.371 220.132 268.313 213.539 274.906C206.946 281.499 198.004 285.203 188.68 285.203C179.356 285.203 170.414 281.499 163.82 274.906C157.227 268.313 153.523 259.371 153.523 250.047C153.523 240.723 157.227 231.781 163.82 225.188C170.414 218.595 179.356 214.891 188.68 214.891ZM285.359 223.68C285.359 218.846 289.314 214.891 294.148 214.891H364.461C369.295 214.891 373.25 218.846 373.25 223.68C373.25 228.514 369.295 232.469 364.461 232.469H294.148C289.314 232.469 285.359 228.514 285.359 223.68ZM285.359 258.836C285.359 254.002 289.314 250.047 294.148 250.047H364.461C369.295 250.047 373.25 254.002 373.25 258.836C373.25 263.67 369.295 267.625 364.461 267.625H294.148C289.314 267.625 285.359 263.67 285.359 258.836ZM285.359 293.992C285.359 289.158 289.314 285.203 294.148 285.203H364.461C369.295 285.203 373.25 289.158 373.25 293.992C373.25 298.826 369.295 302.781 364.461 302.781H294.148C289.314 302.781 285.359 298.826 285.359 293.992Z" fill="white"/>
</svg>
