<svg width="36" height="41" viewBox="0 0 36 41" fill="none" xmlns="http://www.w3.org/2000/svg">
<path d="M0 8C0 3.58172 3.58172 0 8 0H28C32.4183 0 36 3.58172 36 8V34H0V8Z" fill="#221F2E"/>
<path d="M10.1071 28.499C10.3073 28.2447 10.6927 28.2447 10.8929 28.499L16.358 35.4407C16.6163 35.7687 16.3826 36.25 15.9652 36.25H5.03482C4.61738 36.25 4.38374 35.7687 4.64196 35.4407L10.1071 28.499Z" fill="#24ee89"/>
<path d="M26.1071 28.499C26.3073 28.2447 26.6927 28.2447 26.8929 28.499L32.358 35.4407C32.6163 35.7687 32.3826 36.25 31.9652 36.25H21.0348C20.6174 36.25 20.3837 35.7687 20.642 35.4407L26.1071 28.499Z" fill="#24ee89"/>
<path d="M20.2821 37.5018C19.5403 38.958 17.4597 38.958 16.7179 37.5018L13.4861 31.1578C12.8083 29.8272 13.7749 28.25 15.2682 28.25H21.7318C23.2251 28.25 24.1917 29.8272 23.5139 31.1578L20.2821 37.5018Z" fill="#221F2E"/>
<path d="M3.79764 36.9145C3.40046 37.455 2.59425 37.459 2.1918 36.9224L0.200001 34.2667C0.0701783 34.0936 0 33.883 0 33.6667V30.75C0 30.1977 0.447715 29.75 1 29.75H7.08644C7.90598 29.75 8.37756 30.6817 7.89228 31.3421L3.79764 36.9145Z" fill="#221F2E"/>
<path d="M34.7316 36.5368C34.3972 37.2055 33.474 37.2842 33.0313 36.6817L29.1077 31.3421C28.6225 30.6817 29.094 29.75 29.9136 29.75H35C35.5523 29.75 36 30.1977 36 30.75V33.7639C36 33.9192 35.9639 34.0723 35.8944 34.2111L34.7316 36.5368Z" fill="#221F2E"/>
<circle cx="10" cy="9" r="1" fill="#24ee89"/>
<circle cx="10" cy="16" r="1" fill="#24ee89"/>
<path d="M13 9H27" stroke="#24ee89" stroke-width="2" stroke-linecap="round"/>
<path d="M13 16H27" stroke="#24ee89" stroke-width="2" stroke-linecap="round"/>
</svg>
