<svg width="62" height="69" viewBox="0 0 62 69" fill="none" xmlns="http://www.w3.org/2000/svg">
<path d="M37.2146 3.42159L7.21457 15.4216C4.36713 16.5606 2.5 19.3184 2.5 22.3852V52C2.5 56.1421 5.85786 59.5 10 59.5H40C44.1421 59.5 47.5 56.1421 47.5 52V10.3852C47.5 5.07918 42.141 1.451 37.2146 3.42159Z" fill="#705c2f" stroke="#705c2f" stroke-width="5"/>
<rect y="24" width="60" height="45" rx="10" fill="#24ee89"/>
<rect x="16" y="33" width="27" height="5" rx="2.5" fill="#705c2f"/>
<path d="M48 48C48 45.2386 50.2386 43 53 43H60C61.1046 43 62 43.8954 62 45V51C62 52.1046 61.1046 53 60 53H53C50.2386 53 48 50.7614 48 48V48Z" fill="#705c2f"/>
</svg>
