<svg width="17" height="21" viewBox="0 0 17 21" fill="none" xmlns="http://www.w3.org/2000/svg">
<path d="M3.165 20.5H2C1.73478 20.5 1.48043 20.3946 1.29289 20.2071C1.10536 20.0196 1 19.7652 1 19.5V2C1 1.73478 1.10536 1.48043 1.29289 1.29289C1.48043 1.10536 1.73478 1 2 1H3.165M3.165 20.5V1M3.165 20.5H15.6C15.8652 20.5 16.1196 20.3946 16.3071 20.2071C16.4946 20.0196 16.6 19.7652 16.6 19.5V2C16.6 1.73478 16.4946 1.48043 16.3071 1.29289C16.1196 1.10536 15.8652 1 15.6 1H3.165" stroke="#24ee89" stroke-width="0.5" stroke-linecap="round" stroke-linejoin="round"/>
<path d="M9.56549 15.959C9.79276 15.959 9.97699 15.7911 9.97699 15.584C9.97699 15.3769 9.79276 15.209 9.56549 15.209C9.33823 15.209 9.15399 15.3769 9.15399 15.584C9.15399 15.7911 9.33823 15.959 9.56549 15.959Z" fill="#24ee89"/>
<path d="M5.95047 8.77447C5.9408 8.33144 6.02282 7.89119 6.19138 7.48137C6.35994 7.07154 6.6114 6.70099 6.92997 6.39297C7.64935 5.76342 8.58776 5.4426 9.54197 5.49997C11.501 5.49997 13.1335 6.98847 13.1335 8.77447C13.1431 9.21741 13.061 9.65756 12.8925 10.0673C12.7239 10.477 12.4725 10.8475 12.154 11.1555C11.338 11.7505 9.54197 12.644 9.54197 13.9835" stroke="#24ee89" stroke-width="0.5" stroke-linecap="round" stroke-linejoin="round"/>
</svg>
