<svg width="40" height="42" viewBox="0 0 40 42" fill="none" xmlns="http://www.w3.org/2000/svg">
<path d="M2.46 0H18.72C20.08 0 21.18 1.12 21.18 2.5V5.24C21.18 6.24 20.56 7.48 19.94 8.1L14.64 12.84C13.9 13.46 13.4 14.72 13.4 15.7V21.06C13.4 21.8 12.9 22.8 12.3 23.18L10.58 24.3C8.97997 25.3 6.75997 24.18 6.75997 22.18V15.56C6.75997 14.68 6.25997 13.56 5.77997 12.94L1.1 7.94C0.48 7.32 0 6.2 0 5.44V2.58C0 1.12 1.1 0 2.46 0Z" fill="#24ee89"/>
<path opacity="0.4" d="M30 2H25.2C24.64 2 24.2 2.44 24.2 3V5.24C24.2 7.22 23.14 9.16 22.1 10.22L16.66 15.08C16.6 15.22 16.5 15.42 16.44 15.58V21.08C16.44 22.9 15.36 24.88 13.88 25.78L12.24 26.84C11.32 27.42 10.3 27.7 9.27997 27.7C8.35997 27.7 7.43997 27.46 6.59997 27C5.3 26.28 4.4 25.1 4 23.74V18.42C4.0016 18.2888 3.97573 18.1588 3.92407 18.0383C3.8724 17.9177 3.79608 17.8093 3.7 17.72L1.7 15.72C1.06 15.1 0 15.54 0 16.42V32C0 37.52 4.48 42 9.99997 42H30C35.52 42 40 37.52 40 32V12C40 6.48 35.52 2 30 2Z" fill="#24ee89"/>
<path d="M32 25.5H22C21.18 25.5 20.5 24.82 20.5 24C20.5 23.18 21.18 22.5 22 22.5H32C32.82 22.5 33.5 23.18 33.5 24C33.5 24.82 32.82 25.5 32 25.5ZM32 33.5H18C17.18 33.5 16.5 32.82 16.5 32C16.5 31.18 17.18 30.5 18 30.5H32C32.82 30.5 33.5 31.18 33.5 32C33.5 32.82 32.82 33.5 32 33.5Z" fill="#24ee89"/>
</svg>
