<svg width="42" height="34" viewBox="0 0 42 34" fill="none" xmlns="http://www.w3.org/2000/svg">
<path opacity="0.4" d="M35.18 8.79996V19.1C35.18 25.26 31.66 27.9 26.38 27.9H8.79998C7.89998 27.9 7.03998 27.82 6.24 27.64C5.74 27.56 5.26 27.42 4.82 27.26C1.82 26.14 0 23.54 0 19.1V8.79996C0 2.64 3.52 0 8.79998 0H26.38C30.86 0 34.08 1.9 34.94 6.23996C35.08 7.03996 35.18 7.85996 35.18 8.79996Z" fill="#24ee89"/>
<path d="M41.1764 14.8002V25.1002C41.1764 31.2602 37.6564 33.9002 32.3764 33.9002H14.7963C13.3163 33.9002 11.9763 33.7002 10.8163 33.2602C8.43628 32.3802 6.81628 30.5602 6.23633 27.6402C7.03638 27.8202 7.89628 27.9002 8.79628 27.9002H26.3763C31.6564 27.9002 35.1764 25.2602 35.1764 19.1002V8.80023C35.1764 7.86023 35.0963 7.02023 34.9363 6.24023C38.7363 7.04023 41.1764 9.72023 41.1764 14.8002Z" fill="#24ee89"/>
<path d="M17.5796 19.2397C18.98 19.2397 20.323 18.6834 21.3131 17.6933C22.3033 16.7031 22.8596 15.3601 22.8596 13.9597C22.8596 12.5594 22.3033 11.2164 21.3131 10.2262C20.323 9.23599 18.98 8.67969 17.5796 8.67969C16.1793 8.67969 14.8363 9.23599 13.8461 10.2262C12.8559 11.2164 12.2996 12.5594 12.2996 13.9597C12.2996 15.3601 12.8559 16.7031 13.8461 17.6933C14.8363 18.6834 16.1793 19.2397 17.5796 19.2397ZM6.1416 9.45969C5.3216 9.45969 4.6416 10.1397 4.6416 10.9597V16.9597C4.6416 17.7797 5.3216 18.4597 6.1416 18.4597C6.96158 18.4597 7.64158 17.7797 7.64158 16.9597V10.9597C7.64158 10.1397 6.98158 9.45969 6.1416 9.45969ZM28.9996 9.45969C28.1796 9.45969 27.4996 10.1397 27.4996 10.9597V16.9597C27.4996 17.7797 28.1796 18.4597 28.9996 18.4597C29.8196 18.4597 30.4996 17.7797 30.4996 16.9597V10.9597C30.4996 10.1397 29.8396 9.45969 28.9996 9.45969Z" fill="#24ee89"/>
</svg>
