<svg width="55" height="45" viewBox="0 0 55 45" fill="none" xmlns="http://www.w3.org/2000/svg">
<path d="M11 30L15.3431 31.4318C16.9939 31.976 18.2437 33.3386 18.6435 35.0303L21 45H14L11 30Z" fill="#24ee89"/>
<path d="M0 16C0 13.2386 2.23858 11 5 11H8V27H5C2.23858 27 0 24.7614 0 22V16Z" fill="#24ee89"/>
<path fill-rule="evenodd" clip-rule="evenodd" d="M49 37C52.3137 37 55 28.7173 55 18.5C55 8.28273 52.3137 0 49 0C48.4214 0 47.862 0.252502 47.3326 0.723716L24.5 7.4L21 8.45714L17 9.51429L11 10.5714V27.4857L17 28.5429L20.5 29.6L24.5 30.6571L47.3804 36.3181C47.8956 36.7624 48.4388 37 49 37Z" fill="#24ee89"/>
</svg>
