<svg width="40" height="40" viewBox="0 0 40 40" fill="none" xmlns="http://www.w3.org/2000/svg">
<path d="M5.49547 32.6243C5.7552 32.251 6.12989 31.9786 6.56811 31.857C8.69306 31.2676 15.4021 29.5137 20.0003 29.5137C24.5984 29.5137 31.3075 31.2676 33.4325 31.857C33.8707 31.9786 34.2454 32.251 34.5051 32.6243L36.6188 35.6624C37.5414 36.9885 36.5925 38.8046 34.9771 38.8046H5.02348C3.40804 38.8046 2.45914 36.9885 3.38175 35.6624L5.49547 32.6243Z" fill="url(#paint0_linear_1097_2081)"/>
<path d="M30.0536 1.3266L19.0599 2.57018C11.5381 3.49927 6.83691 8.90685 6.83691 15.5775C6.83691 22.2481 12.3093 27.6557 19.0599 27.6557C25.2496 27.6557 30.3647 23.1095 31.1721 17.2119L32.8764 11.0433C33.0539 10.3999 32.869 9.71192 32.3918 9.2404L30.9088 7.77494C30.109 6.98461 30.1912 5.68044 31.084 4.99424L32.8764 3.49928C35.044 1.32659 31.9994 0.942052 30.0536 1.3266ZM23.4592 20.3337C22.788 22.4405 21.0715 23.9388 19.0598 23.9388C17.0481 23.9388 15.3315 22.4405 14.6604 20.3337C14.3252 19.2813 15.254 18.3643 16.3586 18.3643H21.761C22.8655 18.3643 23.7944 19.2813 23.4592 20.3337Z" fill="url(#paint1_linear_1097_2081)"/>
<defs>
<linearGradient id="paint0_linear_1097_2081" x1="20.0003" y1="29.5137" x2="20.0003" y2="38.8046" gradientUnits="userSpaceOnUse">
<stop offset="1" stop-color="#24ee89"/>
</linearGradient>
<linearGradient id="paint1_linear_1097_2081" x1="20.2304" y1="1.19531" x2="20.2304" y2="27.6557" gradientUnits="userSpaceOnUse">
<stop stop-color="#F5B73B"/>
<stop offset="1" stop-color="#24ee89"/>
</linearGradient>
</defs>
</svg>
