<svg width="34" height="38" viewBox="0 0 34 38" fill="none" xmlns="http://www.w3.org/2000/svg">
<path d="M2.49742 31.7249C2.75715 31.3516 3.13184 31.0792 3.57006 30.9576C5.69501 30.3682 12.4041 28.6143 17.0023 28.6143C21.6004 28.6143 28.3095 30.3682 30.4345 30.9576C30.8727 31.0792 31.2474 31.3516 31.5071 31.7249L33.6208 34.763C34.5434 36.0891 33.5945 37.9052 31.9791 37.9052H2.02543C0.409995 37.9052 -0.538905 36.0891 0.383705 34.763L2.49742 31.7249Z" fill="#626663"/>
<path d="M27.0556 0.427185L16.0619 1.67077C8.5401 2.59986 3.83887 8.00744 3.83887 14.6781C3.83887 21.3487 9.3113 26.7563 16.0619 26.7563C22.2516 26.7563 27.3667 22.2101 28.1741 16.3125L29.8784 10.1439C30.0559 9.50048 29.871 8.81251 29.3938 8.34099L27.9108 6.87552C27.111 6.0852 27.1932 4.78102 28.086 4.09482L29.8784 2.59986C32.046 0.427175 29.0014 0.042638 27.0556 0.427185ZM20.4612 19.4343C19.79 21.5411 18.0735 23.0394 16.0618 23.0394C14.0501 23.0394 12.3335 21.5411 11.6624 19.4343C11.3272 18.3819 12.256 17.4649 13.3606 17.4649H18.763C19.8675 17.4649 20.7964 18.3819 20.4612 19.4343Z" fill="#626663"/>
</svg>
