<svg width="36" height="38" viewBox="0 0 36 38" fill="none" xmlns="http://www.w3.org/2000/svg">
<g clip-path="url(#clip0_1097_2092)">
<path d="M18.2139 7.95772C18.214 7.34191 17.9982 6.74166 17.599 6.27114L14.251 2.32449C11.8089 -0.55435 7.19922 1.22067 7.19922 5.03992C7.19922 6.89382 8.40068 8.52081 10.1381 9.0197L15.045 10.4287C16.4916 10.8441 17.965 9.86246 18.1865 8.33581C18.2048 8.20978 18.2138 8.08342 18.2139 7.95772ZM18.2139 7.95772C18.2139 8.08342 18.2229 8.20978 18.2412 8.33581C18.4627 9.86246 19.9361 10.8441 21.3827 10.4287L26.2896 9.0197C28.027 8.52081 29.2285 6.89382 29.2285 5.03992C29.2285 1.22067 24.6189 -0.55435 22.1767 2.32449L18.8287 6.27114C18.4295 6.74166 18.2138 7.34191 18.2139 7.95772Z" fill="url(#paint0_linear_1097_2092)"/>
<path d="M16.1662 18.9561C16.1662 18.4038 15.7185 17.9561 15.1662 17.9561H2.49805C1.94577 17.9561 1.49805 18.4038 1.49805 18.9561V35.331C1.49805 36.8038 2.69197 37.9977 4.16475 37.9977H15.1662C15.7185 37.9977 16.1662 37.55 16.1662 36.9977V18.9561Z" fill="#24ee89"/>
<path d="M19.834 36.9977C19.834 37.55 20.2817 37.9977 20.834 37.9977H31.8353C33.3081 37.9977 34.502 36.8038 34.502 35.331V18.9561C34.502 18.4038 34.0543 17.9561 33.502 17.9561H20.834C20.2817 17.9561 19.834 18.4038 19.834 18.9561V36.9977Z" fill="#24ee89"/>
<path d="M-0.00195312 10.2061C-0.00195312 9.37764 0.66962 8.70605 1.49805 8.70605H34.502C35.3304 8.70605 36.002 9.37764 36.002 10.2061V13.3727C36.002 14.2011 35.3304 14.8727 34.502 14.8727H1.49805C0.669622 14.8727 -0.00195312 14.2011 -0.00195312 13.3727V10.2061Z" fill="url(#paint1_linear_1097_2092)"/>
</g>
<defs>
<linearGradient id="paint0_linear_1097_2092" x1="18.0001" y1="-1.5" x2="18.5001" y2="14" gradientUnits="userSpaceOnUse">
<stop stop-color="#F5B73B"/>
<stop offset="1" stop-color="#24ee89"/>
</linearGradient>
<linearGradient id="paint1_linear_1097_2092" x1="18" y1="5" x2="18" y2="15" gradientUnits="userSpaceOnUse">
<stop stop-color="#F5B73B"/>
<stop offset="1" stop-color="#24ee89"/>
</linearGradient>
<clipPath id="clip0_1097_2092">
<rect width="36" height="38" fill="white"/>
</clipPath>
</defs>
</svg>
