<svg width="36" height="38" viewBox="0 0 36 38" fill="none" xmlns="http://www.w3.org/2000/svg">
<path d="M18.2159 7.05831C18.216 6.4425 18.0002 5.84225 17.601 5.37173L14.253 1.42508C11.8109 -1.45376 7.20117 0.321258 7.20117 4.14051C7.20117 5.99441 8.40263 7.6214 10.1401 8.12029L15.047 9.52929C16.4936 9.94469 17.967 8.96305 18.1885 7.4364C18.2068 7.31037 18.2158 7.18401 18.2159 7.05831ZM18.2159 7.05831C18.2159 7.18401 18.2249 7.31037 18.2432 7.4364C18.4647 8.96305 19.9381 9.94469 21.3847 9.52929L26.2916 8.12029C28.029 7.6214 29.2305 5.99441 29.2305 4.14051C29.2305 0.321258 24.6209 -1.45376 22.1787 1.42508L18.8307 5.37173C18.4315 5.84225 18.2158 6.4425 18.2159 7.05831Z" fill="#626663"/>
<path d="M16.1681 18.0566C16.1681 17.5043 15.7204 17.0566 15.1681 17.0566H2.5C1.94772 17.0566 1.5 17.5043 1.5 18.0566V34.4315C1.5 35.9043 2.69392 37.0982 4.1667 37.0982H15.1681C15.7204 37.0982 16.1681 36.6505 16.1681 36.0982V18.0566Z" fill="#626663"/>
<path d="M19.8359 36.0982C19.8359 36.6505 20.2836 37.0982 20.8359 37.0982H31.8372C33.31 37.0982 34.5039 35.9043 34.5039 34.4315V18.0566C34.5039 17.5043 34.0562 17.0566 33.5039 17.0566H20.8359C20.2836 17.0566 19.8359 17.5043 19.8359 18.0566V36.0982Z" fill="#626663"/>
<path d="M0 9.30669C0 8.47822 0.671573 7.80664 1.5 7.80664H34.504C35.3324 7.80664 36.004 8.47822 36.004 9.30669V12.4733C36.004 13.3017 35.3324 13.9733 34.504 13.9733H1.5C0.671575 13.9733 0 13.3017 0 12.4733V9.30669Z" fill="#626663"/>
</svg>
