<svg width="65" height="55" viewBox="0 0 65 55" fill="none" xmlns="http://www.w3.org/2000/svg">
<path d="M34 2.5H10C5.85787 2.5 2.5 5.85786 2.5 10V38C2.5 42.1421 5.85787 45.5 10 45.5H34C38.1421 45.5 41.5 42.1421 41.5 38V10C41.5 5.85786 38.1421 2.5 34 2.5Z" fill="#F95959" stroke="#F95959" stroke-width="5"/>
<rect y="10" width="60" height="45" rx="10" fill="#783838"/>
<rect x="16" y="19" width="27" height="5" rx="2.5" fill="#F95959"/>
<path d="M51 34C51 31.2386 53.2386 29 56 29H63C64.1046 29 65 29.8954 65 31V37C65 38.1046 64.1046 39 63 39H56C53.2386 39 51 36.7614 51 34V34Z" fill="#F95959"/>
</svg>
