<svg width="88" height="96" viewBox="0 0 88 96" fill="none" xmlns="http://www.w3.org/2000/svg">
<path d="M38.5 33.5C47.9796 33.5 56.6752 32.0133 63.0925 29.5231C66.2931 28.281 69.054 26.7405 71.0575 24.9023C73.0629 23.0624 74.5 20.7329 74.5 18C74.5 15.2671 73.0629 12.9376 71.0575 11.0977C69.054 9.25949 66.2931 7.71898 63.0925 6.47695C56.6752 3.98666 47.9796 2.5 38.5 2.5C29.0204 2.5 20.3248 3.98666 13.9075 6.47695C10.7069 7.71898 7.946 9.25949 5.94247 11.0977C3.93709 12.9376 2.5 15.2671 2.5 18C2.5 20.7329 3.93709 23.0624 5.94247 24.9023C7.946 26.7405 10.7069 28.281 13.9075 29.5231C20.3248 32.0133 29.0204 33.5 38.5 33.5Z" stroke="#EF950E" stroke-width="5"/>
<path d="M2.5 44C2.5 46.6158 3.83689 48.9219 5.8408 50.7993C7.83728 52.6697 10.6205 54.2475 13.9075 55.5231C17.2149 56.8065 21.0839 57.8037 25.2833 58.4787C29.4876 59.1545 33.9768 59.5 38.5 59.5C43.0232 59.5 47.5124 59.1545 51.7167 58.4788C55.9161 57.8037 59.7851 56.8065 63.0925 55.5231C66.3795 54.2475 69.1627 52.6697 71.1592 50.7993C73.1631 48.9219 74.5 46.6158 74.5 44" stroke="#EF950E" stroke-width="5"/>
<path d="M2.5 70C2.5 72.6158 3.83689 74.9219 5.8408 76.7993C7.83728 78.6697 10.6205 80.2475 13.9075 81.5231C17.2149 82.8065 21.0839 83.8037 25.2833 84.4787C29.4876 85.1545 33.9768 85.5 38.5 85.5C43.0232 85.5 47.5124 85.1545 51.7167 84.4788C55.9161 83.8037 59.7851 82.8065 63.0925 81.5231C66.3795 80.2475 69.1627 78.6697 71.1592 76.7993C73.1631 74.9219 74.5 72.6158 74.5 70" stroke="#EF950E" stroke-width="5"/>
<line x1="2.5" y1="72" x2="2.5" y2="18" stroke="#EF950E" stroke-width="5"/>
<line x1="74.5" y1="72" x2="74.5" y2="18" stroke="#EF950E" stroke-width="5"/>
<path d="M43 57.65L84.475 56.6L82.9 87.05L62.425 91.25L51.925 89.675L43 84.95V57.65Z" fill="#1A1918"/>
<path d="M62.7859 61.8563C68.4785 61.8563 73.7456 60.9653 77.6811 59.438C79.6409 58.6775 81.3976 57.7104 82.7071 56.5089C84.0185 55.3057 85.0719 53.6762 85.0719 51.6781C85.0719 49.68 84.0185 48.0505 82.7071 46.8473C81.3976 45.6458 79.6409 44.6787 77.6811 43.9182C73.7456 42.391 68.4785 41.5 62.7859 41.5C57.0933 41.5 51.8263 42.391 47.8907 43.9182C45.931 44.6787 44.1743 45.6458 42.8648 46.8473C41.5533 48.0505 40.5 49.68 40.5 51.6781C40.5 53.6762 41.5533 55.3057 42.8648 56.5089C44.1743 57.7104 45.931 58.6775 47.8907 59.438C51.8263 60.9653 57.0933 61.8563 62.7859 61.8563Z" fill="#1A1918" stroke="#EF950E" stroke-width="5"/>
<path d="M40.5 67.0344C40.5 68.9513 41.4822 70.5654 42.7969 71.7971C44.1042 73.0218 45.8773 74.0129 47.8907 74.7943C49.9247 75.5836 52.2818 76.1888 54.8174 76.5964C57.3578 77.0047 60.0637 77.2125 62.7859 77.2125C65.5081 77.2125 68.2141 77.0047 70.7544 76.5964C73.29 76.1888 75.6472 75.5836 77.6811 74.7943C79.6946 74.0129 81.4677 73.0218 82.775 71.7971C84.0897 70.5654 85.0719 68.9513 85.0719 67.0344" stroke="#EF950E" stroke-width="5"/>
<path d="M40.5 82.3906C40.5 84.3075 41.4822 85.9216 42.7969 87.1533C44.1042 88.3781 45.8773 89.3692 47.8907 90.1505C49.9247 90.9398 52.2818 91.545 54.8174 91.9526C57.3578 92.3609 60.0637 92.5687 62.7859 92.5687C65.5081 92.5687 68.2141 92.3609 70.7544 91.9526C73.29 91.545 75.6472 90.9398 77.6811 90.1505C79.6946 89.3692 81.4677 88.3781 82.775 87.1533C84.0897 85.9216 85.0719 84.3075 85.0719 82.3906" stroke="#EF950E" stroke-width="5"/>
<line x1="40.5" y1="83.5719" x2="40.5" y2="51.6781" stroke="#EF950E" stroke-width="5"/>
<line x1="85.025" y1="83.5719" x2="85.025" y2="51.6781" stroke="#EF950E" stroke-width="5"/>
</svg>
