<svg width="40" height="48" viewBox="0 0 40 48" fill="none" xmlns="http://www.w3.org/2000/svg">
<path d="M25.6187 7.64062H13.6937C13.0093 7.64062 12.4609 7.08749 12.4609 6.40781V1.23282C12.4609 0.553125 13.014 0 13.6937 0H25.614C26.2983 0 26.8515 0.553125 26.8515 1.23282V6.40312C26.8515 7.0875 26.2984 7.64062 25.6187 7.64062Z" fill="#24ee89"/>
<path d="M36.661 4.59375H29.7844C29.5547 4.59375 29.3719 4.78126 29.3719 5.00626V8.53594C29.3719 9.22032 28.8188 9.76875 28.1391 9.76875H11.5735C10.8891 9.76875 10.3406 9.21563 10.3406 8.53594V5.00626C10.3406 4.77657 10.1531 4.59375 9.92809 4.59375H3.04688C1.36407 4.59375 0 5.95782 0 7.64063V44.8593C0 46.5422 1.36407 47.9062 3.04688 47.9062H36.661C38.3438 47.9062 39.7078 46.5422 39.7078 44.8593V7.64063C39.7078 5.95782 38.3438 4.59375 36.661 4.59375ZM3.69375 16.9219C3.69375 16.0922 4.36407 15.4219 5.19375 15.4219H29.2875C30.1172 15.4219 30.7875 16.0922 30.7875 16.9219C30.7875 17.7515 30.1172 18.4219 29.2875 18.4219H5.19375C4.36407 18.4219 3.69375 17.7515 3.69375 16.9219ZM15.4594 39.0937C15.4594 39.9234 14.7891 40.5937 13.9594 40.5937H5.19375C4.36407 40.5937 3.69375 39.9234 3.69375 39.0937C3.69375 38.264 4.36407 37.5937 5.19375 37.5937H13.9594C14.7891 37.5937 15.4594 38.264 15.4594 39.0937ZM15.4594 31.7015C15.4594 32.5312 14.7891 33.2015 13.9594 33.2015H5.19375C4.36407 33.2015 3.69375 32.5312 3.69375 31.7015C3.69375 30.8718 4.36407 30.2015 5.19375 30.2015H13.9594C14.7891 30.2015 15.4594 30.8765 15.4594 31.7015ZM18.3656 25.814H5.19375C4.36407 25.814 3.69375 25.1437 3.69375 24.314C3.69375 23.4843 4.36407 22.814 5.19375 22.814H18.3656C19.1953 22.814 19.8656 23.4843 19.8656 24.314C19.8656 25.139 19.1953 25.814 18.3656 25.814ZM27.8813 43.739C23.2219 43.739 19.4438 41.7984 19.4438 39.4031C19.4438 38.8031 19.6828 38.2312 20.1094 37.7109C21.3938 39.2625 24.3891 40.3547 27.8813 40.3547C31.3735 40.3547 34.3688 39.2672 35.6531 37.7109C36.0844 38.2312 36.3188 38.8031 36.3188 39.4031C36.3188 41.7984 32.5406 43.739 27.8813 43.739ZM27.8813 38.9297C23.2219 38.9297 19.4438 36.989 19.4438 34.5937C19.4438 33.9703 19.7016 33.3797 20.161 32.8406C21.4688 34.364 24.436 35.4234 27.8813 35.4234C31.3266 35.4234 34.2891 34.3593 35.6016 32.8406C36.061 33.375 36.3188 33.9703 36.3188 34.5937C36.3188 36.989 32.5406 38.9297 27.8813 38.9297ZM27.8813 34.1203C23.2219 34.1203 19.4438 32.1797 19.4438 29.7844C19.4438 27.389 23.2219 25.4484 27.8813 25.4484C32.5406 25.4484 36.3188 27.389 36.3188 29.7844C36.3188 32.1797 32.5406 34.1203 27.8813 34.1203Z" fill="#24ee89"/>
</svg>
