<svg width="71" height="75" viewBox="0 0 71 75" fill="none" xmlns="http://www.w3.org/2000/svg">
<path d="M42.2146 3.42159L12.2146 15.4216C9.36713 16.5606 7.5 19.3184 7.5 22.3852V52C7.5 56.1421 10.8579 59.5 15 59.5H45C49.1421 59.5 52.5 56.1421 52.5 52V10.3852C52.5 5.07918 47.141 1.451 42.2146 3.42159Z" stroke="#24ee89" stroke-width="5"/>
<rect x="8" y="24" width="60" height="45" rx="10" fill="#24ee89"/>
<circle cx="13" cy="62" r="11.5" fill="#24ee89" stroke="#111111" stroke-width="3"/>
<rect x="25" y="33" width="27" height="5" rx="2.5" fill="#24ee89"/>
<path d="M69.5 43V41.5H68H58C54.9624 41.5 52.5 43.9624 52.5 47C52.5 50.0376 54.9624 52.5 58 52.5H68H69.5V51V43Z" fill="#24ee89" stroke="#111111" stroke-width="3"/>
<path d="M8 57.25L12.6033 61.5975C12.8166 61.799 12.8114 62.1399 12.5922 62.3348L8 66.4167" stroke="#111111" stroke-width="2"/>
<path d="M12.75 57L17.3533 61.3475C17.5666 61.549 17.5614 61.8899 17.3422 62.0848L12.75 66.1667" stroke="#111111" stroke-width="2"/>
</svg>
