<svg width="221" height="221" viewBox="0 0 221 221" fill="none" xmlns="http://www.w3.org/2000/svg">
<path d="M174.756 20.1928C199.432 38.6997 215.823 64.8545 220.318 95.5052C222.236 129.623 215.422 158.895 192.343 185.141C174.944 204.427 148.564 219.199 122.169 220.682C86.465 221.332 57.6782 213.601 31.1036 188.286C9.73879 166.952 0.0863577 138.893 0 109.221C0.0235514 77.6401 13.0941 50.7608 35.3184 28.5053C73.5914 -6.43697 132.634 -9.31038 174.756 20.1928Z" fill="#221F2E"/>
<path d="M174.756 20.1928C199.432 38.6997 215.823 64.8545 220.318 95.5052C222.236 129.623 215.422 158.895 192.343 185.141C174.944 204.427 148.564 219.199 122.169 220.682C86.465 221.332 57.6782 213.601 31.1036 188.286C9.73879 166.952 0.0863577 138.893 0 109.221C0.0235514 77.6401 13.0941 50.7608 35.3184 28.5053C73.5914 -6.43697 132.634 -9.31038 174.756 20.1928ZM48.963 49.6185C37.3304 62.9641 29.0123 80.6596 28.3184 98.5052C28.2553 99.6744 28.1921 100.844 28.127 102.048C27.4157 120.935 33.4358 141.795 46.3184 156.005C48.3184 158.505 48.3184 158.505 48.2208 160.474C45.737 166.065 37.0468 168.727 31.6934 170.88C30.2385 171.431 28.7813 171.976 27.3184 172.505C31.5525 176.247 36.0604 178.566 41.1309 180.943C41.9675 181.336 42.8041 181.729 43.6661 182.134C59.4624 189.385 74.9747 192.898 92.3809 192.818C93.6593 192.812 94.9378 192.806 96.2549 192.801C123.664 192.451 152.148 183.924 172.318 164.505C173.165 163.698 174.012 162.891 174.885 162.06C191.444 145.121 197.763 123.859 197.755 100.591C197.294 81.3544 189.163 63.6791 176.318 49.5053C175.569 48.6635 174.821 47.8217 174.049 46.9545C160.461 32.488 139.375 22.3633 119.318 21.5053C117.692 21.4279 117.692 21.4279 116.033 21.349C90.3179 20.7108 66.7467 31.0852 48.963 49.6185Z" fill="#fec662"/>
<path d="M117.318 34.5054C116.844 35.6604 116.37 36.8154 115.881 38.0054C114.296 42.1911 113.716 46.0578 113.318 50.5054C114.226 50.4229 115.133 50.3404 116.068 50.2554C128.545 50.3057 141.004 57.7524 149.631 66.2554C159.862 76.8151 166.418 90.2325 166.818 105.13C165.984 122.461 159.894 136.477 147.318 148.505C135.724 158.97 120.433 163.214 105.057 162.853C89.099 161.369 75.8474 153.05 65.3497 141.302C55.0716 128.049 52.289 111.865 54.3184 95.5054C56.9571 81.2606 64.8375 68.2263 74.3184 57.5054C74.825 56.9047 75.3316 56.304 75.8536 55.6851C85.1579 45.4527 102.936 33.4585 117.318 34.5054Z" fill="#fec662"/>
<path d="M89.8184 91.8179C94.2971 92.6976 95.5483 93.9005 98.3184 97.5054C99.037 100.528 99.0188 103.411 98.9434 106.505C98.9724 107.696 98.9724 107.696 99.002 108.912C98.966 113.233 98.6976 115.017 95.9669 118.533C93.3184 120.505 93.3184 120.505 90.3184 121.068C86.6593 120.382 84.9667 119.078 82.3184 116.505C80.7683 113.405 81.0105 110.156 80.9434 106.755C80.906 106.052 80.8687 105.348 80.8301 104.623C80.764 100.667 81.1435 98.1962 83.6231 95.0327C86.3184 92.5054 86.3184 92.5054 89.8184 91.8179Z" fill="#221F2E"/>
<path d="M131.318 91.9428C131.978 91.9415 132.638 91.9403 133.318 91.9389C136.434 92.8212 137.465 93.8165 139.318 96.5053C139.936 99.8477 139.922 103.115 139.881 106.505C139.905 107.408 139.929 108.31 139.953 109.24C139.939 115.821 139.939 115.821 136.971 119.095C133.684 120.843 131.987 121.193 128.318 120.505C125.604 118.486 123.637 116.885 122.853 113.488C122.681 111.141 122.685 108.857 122.756 106.505C122.745 105.711 122.734 104.917 122.723 104.099C122.772 100.145 123.059 97.9455 125.104 94.478C127.44 92.3974 128.252 91.841 131.318 91.9428Z" fill="#221F2E"/>
</svg>
