<svg width="221" height="221" viewBox="0 0 221 221" fill="none" xmlns="http://www.w3.org/2000/svg">
<ellipse cx="102.5" cy="111" rx="97.5" ry="100" fill="#24ee89"/>
<path d="M174.756 20.1928C199.432 38.6997 215.823 64.8545 220.318 95.5052C222.236 129.623 215.422 158.895 192.343 185.141C174.944 204.427 148.564 219.199 122.169 220.682C86.465 221.332 57.6782 213.601 31.1036 188.286C9.73879 166.952 0.0863577 138.893 0 109.221C0.0235514 77.6401 13.0941 50.7608 35.3184 28.5053C73.5914 -6.43697 132.634 -9.31038 174.756 20.1928ZM48.963 49.6185C37.3304 62.9641 29.0123 80.6596 28.3184 98.5052C28.2553 99.6744 28.1921 100.844 28.127 102.048C27.4157 120.935 33.4358 141.795 46.3184 156.005C48.3184 158.505 48.3184 158.505 48.2208 160.474C45.737 166.065 37.0468 168.727 31.6934 170.88C30.2385 171.431 28.7813 171.976 27.3184 172.505C31.5525 176.247 36.0604 178.566 41.1309 180.943C41.9675 181.336 42.8041 181.729 43.6661 182.134C59.4624 189.385 74.9747 192.898 92.3809 192.818C93.6593 192.812 94.9378 192.806 96.2549 192.801C123.664 192.451 152.148 183.924 172.318 164.505C173.165 163.698 174.012 162.891 174.885 162.06C191.444 145.121 197.763 123.859 197.755 100.591C197.294 81.3544 189.163 63.6791 176.318 49.5053C175.569 48.6635 174.821 47.8217 174.049 46.9545C160.461 32.488 139.375 22.3633 119.318 21.5053C117.692 21.4279 117.692 21.4279 116.033 21.349C90.3179 20.7108 66.7467 31.0852 48.963 49.6185Z" fill="#222121"/>
<path d="M116.619 34.064C116.144 35.219 115.67 36.374 115.181 37.564C113.597 41.7497 113.016 45.6164 112.619 50.064C113.526 49.9815 114.434 49.899 115.369 49.814C127.845 49.8643 140.304 57.311 148.931 65.814C159.162 76.3737 165.719 89.7911 166.119 104.689C165.284 122.02 159.194 136.035 146.619 148.064C135.024 158.529 119.733 162.773 104.357 162.412C88.3993 160.928 75.1477 152.608 64.65 140.861C54.3719 127.608 51.5893 111.424 53.6187 95.064C56.2574 80.8192 64.1378 67.7849 73.6187 57.064C74.1253 56.4633 74.6319 55.8626 75.1539 55.2437C84.4582 45.0113 102.237 33.0171 116.619 34.064Z" fill="#705c2f"/>
<path d="M89.1186 91.3765C93.5973 92.2562 94.8485 93.4591 97.6186 97.064C98.3372 100.086 98.319 102.97 98.2436 106.064C98.2726 107.255 98.2726 107.255 98.3022 108.47C98.2662 112.792 97.9978 114.576 95.2671 118.091C92.6186 120.064 92.6186 120.064 89.6186 120.626C85.9595 119.94 84.2669 118.637 81.6186 116.064C80.0685 112.964 80.3107 109.715 80.2436 106.314C80.2062 105.61 80.1689 104.906 80.1303 104.181C80.0642 100.225 80.4437 97.7548 82.9233 94.5913C85.6186 92.064 85.6186 92.064 89.1186 91.3765Z" fill="#24ee89"/>
<path d="M130.619 91.5014C131.279 91.5001 131.939 91.4988 132.619 91.4975C135.734 92.3798 136.765 93.3751 138.619 96.0639C139.236 99.4063 139.222 102.673 139.181 106.064C139.205 106.966 139.229 107.869 139.253 108.798C139.239 115.38 139.239 115.38 136.271 118.654C132.984 120.401 131.287 120.752 127.619 120.064C124.904 118.045 122.937 116.444 122.153 113.047C121.981 110.7 121.985 108.416 122.056 106.064C122.045 105.27 122.034 104.476 122.023 103.658C122.072 99.7036 122.359 97.5041 124.404 94.0366C126.74 91.956 127.553 91.3996 130.619 91.5014Z" fill="#24ee89"/>
</svg>
