<svg width="64" height="40" viewBox="0 0 64 40" fill="none" xmlns="http://www.w3.org/2000/svg">
<rect width="64" height="40" rx="20" fill="url(#paint0_linear_1097_2103)"/>
<g clip-path="url(#clip0_1097_2103)">
<path d="M27.0318 16.0433C26.6827 16.0398 26.3404 16.1401 26.0484 16.3315C25.7563 16.5228 25.5278 16.7967 25.3917 17.1182C25.2556 17.4398 25.2182 17.7945 25.2841 18.1374C25.3501 18.4802 25.5164 18.7957 25.762 19.0439C26.0076 19.292 26.3215 19.4616 26.6636 19.531C27.0058 19.6004 27.3609 19.5666 27.6838 19.4338C28.0067 19.301 28.2829 19.0753 28.4772 18.7853C28.6716 18.4952 28.7754 18.154 28.7754 17.8048C28.7743 17.341 28.5908 16.8964 28.2645 16.5668C27.9383 16.2372 27.4955 16.0492 27.0318 16.0433Z" fill="white"/>
<path d="M42 14.7916C41.9988 13.7829 41.5976 12.8158 40.8844 12.1026C40.1712 11.3893 39.2041 10.9881 38.1954 10.9869H35.4549C35.169 10.9834 34.8882 11.062 34.6456 11.2133C34.4031 11.3647 34.2092 11.5825 34.0868 11.8408C33.9585 12.1186 33.7537 12.354 33.4963 12.5195C33.2389 12.685 32.9398 12.7737 32.6338 12.7752H30.2822C29.9838 12.7566 29.6961 12.6569 29.4503 12.4867C29.2044 12.3165 29.0098 12.0823 28.8873 11.8095C28.7597 11.5634 28.5674 11.3568 28.331 11.2118C28.0947 11.0669 27.8234 10.9891 27.5461 10.9869H24.7206C23.7119 10.9881 22.7449 11.3893 22.0317 12.1026C21.3184 12.8158 20.9172 13.7829 20.916 14.7916V25.1189C20.9149 25.5604 21.0017 25.9977 21.1714 26.4052C21.341 26.8128 21.5901 27.1826 21.9041 27.4929C22.2208 27.8039 22.5961 28.0489 23.0082 28.2139C23.4203 28.3789 23.861 28.4606 24.3048 28.4541C26.1691 28.4541 26.9873 27.6986 27.5998 25.4945L28.2972 23.3754H34.6233L35.3252 25.5213C35.9735 27.4258 36.6978 28.4586 38.647 28.4586C39.5355 28.4562 40.387 28.1022 41.0154 27.4739C41.6436 26.8456 41.9977 25.9941 42 25.1055V14.7916ZM27.032 20.8315C26.4334 20.8315 25.8482 20.654 25.3505 20.3214C24.8527 19.9888 24.4648 19.5161 24.2357 18.963C24.0066 18.41 23.9467 17.8014 24.0635 17.2143C24.1802 16.6272 24.4685 16.0879 24.8918 15.6646C25.3151 15.2413 25.8544 14.953 26.4415 14.8363C27.0286 14.7195 27.6372 14.7794 28.1902 15.0085C28.7433 15.2376 29.216 15.6255 29.5486 16.1233C29.8812 16.621 30.0587 17.2062 30.0587 17.8048C30.0575 18.6071 29.7382 19.3763 29.1709 19.9437C28.6035 20.5111 27.8343 20.8303 27.032 20.8315ZM38.2804 18.4397H36.5189V20.1966C36.5189 20.28 36.5025 20.3626 36.4706 20.4396C36.4387 20.5166 36.3919 20.5866 36.333 20.6456C36.274 20.7045 36.204 20.7512 36.127 20.7832C36.05 20.8151 35.9674 20.8315 35.8841 20.8315C35.8007 20.8315 35.7182 20.8151 35.6411 20.7832C35.5641 20.7512 35.4941 20.7045 35.4352 20.6456C35.3762 20.5866 35.3294 20.5166 35.2975 20.4396C35.2657 20.3626 35.2492 20.28 35.2492 20.1966V18.4397H33.4877C33.3194 18.4397 33.1579 18.3728 33.0388 18.2537C32.9198 18.1346 32.8529 17.9732 32.8529 17.8048C32.8529 17.6364 32.9198 17.475 33.0388 17.3559C33.1579 17.2368 33.3194 17.17 33.4877 17.17H35.2492V15.4085C35.2492 15.2401 35.3161 15.0786 35.4352 14.9596C35.5542 14.8405 35.7157 14.7737 35.8841 14.7737C36.0524 14.7737 36.2139 14.8405 36.333 14.9596C36.452 15.0786 36.5189 15.2401 36.5189 15.4085V17.17H38.2804C38.4487 17.17 38.6102 17.2368 38.7293 17.3559C38.8483 17.475 38.9152 17.6364 38.9152 17.8048C38.9152 17.9732 38.8483 18.1346 38.7293 18.2537C38.6102 18.3728 38.4487 18.4397 38.2804 18.4397Z" fill="white"/>
</g>
<defs>
<linearGradient id="paint0_linear_1097_2103" x1="32" y1="0" x2="32" y2="40" gradientUnits="userSpaceOnUse">
<stop stop-color="#F5B73B"/>
<stop offset="1" stop-color="#24ee89"/>
</linearGradient>
<clipPath id="clip0_1097_2103">
<rect width="21" height="21.525" fill="white" transform="translate(21 9)"/>
</clipPath>
</defs>
</svg>
