<svg width="250" height="250" viewBox="0 0 250 250" fill="none" xmlns="http://www.w3.org/2000/svg">
<path d="M112.5 7.21688C120.235 2.75106 129.765 2.75106 137.5 7.21688L220.753 55.2831C228.488 59.7489 233.253 68.0021 233.253 76.9338V173.066C233.253 181.998 228.488 190.251 220.753 194.717L137.5 242.783C129.765 247.249 120.235 247.249 112.5 242.783L29.2468 194.717C21.5118 190.251 16.7468 181.998 16.7468 173.066V76.9338C16.7468 68.0021 21.5118 59.7489 29.2468 55.2831L112.5 7.21688Z" fill="#74501a"/>
<path d="M74 193.5C65.7157 193.5 58.7852 186.548 61.9407 178.889C65.0826 171.262 70.667 164.246 78.331 158.498C90.7084 149.215 107.496 144 125 144C142.504 144 159.292 149.215 171.669 158.498C179.333 164.246 184.917 171.262 188.059 178.889C191.215 186.548 184.284 193.5 176 193.5L125 193.5H74Z" fill="#24ee89"/>
<circle cx="124.5" cy="88.5" r="32.5" fill="#24ee89"/>
</svg>
