<svg width="40" height="36" viewBox="0 0 40 36" fill="none" xmlns="http://www.w3.org/2000/svg">
<path d="M18.5162 2.7935L12.4581 8.84568L12.171 9.14648C8.98766 12.7653 9.12046 18.0246 12.4152 21.3193C13.9539 22.858 16.0088 23.7712 18.1821 23.8819C20.3554 23.9927 22.4926 23.2932 24.1798 21.9188L24.3692 21.7567L24.7852 21.374L26.912 19.2472L32.4369 24.7702L22.7697 34.4373C22.0373 35.1695 21.044 35.5809 20.0083 35.5809C18.9725 35.5809 17.9792 35.1695 17.2468 34.4373L3.43931 20.6299C1.3594 18.5526 0.136212 15.7695 0.012366 12.8326C-0.111481 9.89558 0.873065 7.01938 2.77071 4.7744C4.66836 2.52943 7.34048 1.07969 10.2571 0.712774C13.1737 0.345844 16.1216 1.08852 18.5162 2.7935ZM36.2803 3.77193L36.6142 4.09417L36.7392 4.22307L37.0127 4.5121C37.3564 4.89488 37.6727 5.29719 37.9579 5.71122L37.7802 5.45929C37.8798 5.59795 37.9774 5.73856 38.0731 5.88113L37.9579 5.71122C38.0653 5.86746 38.1668 6.02369 38.2645 6.17993L38.0731 5.88113C38.1571 6.00807 38.2372 6.13501 38.3153 6.26586L38.2645 6.17993C38.3465 6.31468 38.4266 6.44944 38.5047 6.58614L38.3153 6.26586C38.4149 6.42796 38.5106 6.59396 38.6004 6.75996L38.5028 6.58614C38.575 6.71309 38.6434 6.84003 38.7098 6.96697L38.6004 6.75996C38.6785 6.90643 38.7566 7.0529 38.8289 7.20328L38.7117 6.96892C38.7996 7.13883 38.8816 7.31069 38.9617 7.48451L38.8289 7.20328C38.8933 7.33608 38.9558 7.47083 39.0144 7.60559L38.9617 7.48451C39.0437 7.66613 39.1218 7.8458 39.1941 8.03133L39.0144 7.60559C39.892 9.61138 40.1932 11.8221 39.8841 13.9896C39.575 16.1571 38.6679 18.1955 37.2646 19.876L36.917 20.2784L36.7314 20.4697L36.581 20.6299L33.8176 23.3894L28.2946 17.8664C27.9284 17.5003 27.4318 17.2946 26.9139 17.2946C26.3961 17.2946 25.8994 17.5003 25.5332 17.8664L23.463 19.9385L23.0959 20.2764L22.9455 20.4053C21.6332 21.474 19.9711 22.0179 18.2809 21.9316C16.5907 21.8454 14.9926 21.1352 13.7959 19.9385C11.343 17.4856 11.1282 13.6031 13.3213 10.8104L13.585 10.494L13.8389 10.2265L20.059 4.00824L20.1274 3.94184L20.4516 3.63718C20.6953 3.41709 20.9481 3.20729 21.2093 3.00833L20.9574 3.20753C21.0941 3.09816 21.2308 2.9927 21.3675 2.8892L21.2113 3.00833C21.3343 2.91459 21.4593 2.8228 21.5862 2.73491L21.3695 2.89115C21.5079 2.78911 21.6485 2.69013 21.7913 2.5943L21.5862 2.73491C21.7184 2.64164 21.8526 2.55114 21.9885 2.46345L21.7913 2.5943C21.9319 2.50056 22.0725 2.41072 22.2151 2.32284L21.9885 2.46345C22.1253 2.37752 22.262 2.29355 22.4006 2.21347L22.2151 2.32284C22.3557 2.23691 22.4983 2.15489 22.6428 2.07677L22.4006 2.21347C22.5412 2.13145 22.6838 2.05138 22.8264 1.97717L22.6428 2.07481C22.7795 2.0006 22.9201 1.92639 23.0607 1.85608L22.8264 1.97717C22.967 1.90295 23.1095 1.83069 23.2521 1.76234L23.0607 1.85608L23.4943 1.65102L23.2521 1.76234C23.4025 1.69203 23.5548 1.62368 23.7072 1.55728L23.4943 1.65102C23.6447 1.58462 23.797 1.52017 23.9493 1.45963L23.7072 1.55728C23.8614 1.49283 24.0157 1.43034 24.172 1.37175L23.9493 1.45963C26.0137 0.644844 28.2662 0.429784 30.4475 0.839224C32.6287 1.24866 34.65 2.26594 36.2783 3.77389L36.2803 3.77193Z" fill="#626663"/>
</svg>
