<svg width="36" height="35" viewBox="0 0 36 35" fill="none" xmlns="http://www.w3.org/2000/svg">
<path d="M35.8303 31.0996C35.8303 31.5994 35.7448 32.0663 35.5738 32.5004C35.4028 32.9344 35.1595 33.3159 34.8438 33.6447C34.5282 33.9735 34.1599 34.23 33.739 34.4141C33.3181 34.5983 32.8578 34.6903 32.358 34.6903H3.71105C3.21124 34.6903 2.73774 34.5983 2.29054 34.4141C1.84335 34.23 1.44876 33.9735 1.10679 33.6447C0.764813 33.3159 0.495183 32.9344 0.297893 32.5004C0.100593 32.0663 0.00195312 31.5994 0.00195312 31.0996V11.4098C0.00195312 10.4102 0.350503 9.56181 1.0476 8.86471C1.7447 8.16761 2.59306 7.81911 3.59268 7.81911H32.2396C33.2392 7.81911 34.0876 8.16761 34.7847 8.86471C35.4818 9.56181 35.8303 10.4102 35.8303 11.4098V16.7761H26.8732C25.8736 16.7761 25.0252 17.1181 24.3281 17.8021C23.631 18.486 23.2825 19.3278 23.2825 20.3274C23.3088 21.0114 23.4535 21.6164 23.7165 22.1425C23.927 22.5897 24.2755 22.9974 24.7622 23.3657C25.2488 23.734 25.9525 23.9181 26.8732 23.9181H35.8303V31.0996ZM30.4639 6.00397H12.5498C13.9703 5.26741 15.3119 4.55716 16.5745 3.87321C17.6794 3.29448 18.7711 2.71576 19.8496 2.13703C20.9281 1.55831 21.7699 1.11111 22.3749 0.795437C23.2956 0.295637 24.1177 0.065457 24.8411 0.104917C25.5645 0.144377 26.1761 0.269327 26.6759 0.479777C27.2546 0.769137 27.7545 1.15057 28.1753 1.62407L30.4639 6.00397ZM25.0976 20.3274C25.0976 19.8276 25.2686 19.4067 25.6105 19.0647C25.9525 18.7228 26.3734 18.5518 26.8732 18.5518C27.373 18.5518 27.7939 18.7228 28.1359 19.0647C28.4779 19.4067 28.6489 19.8276 28.6489 20.3274C28.6489 20.8272 28.4779 21.2547 28.1359 21.6098C27.7939 21.9649 27.373 22.1425 26.8732 22.1425C26.3734 22.1425 25.9525 21.9649 25.6105 21.6098C25.2686 21.2547 25.0976 20.8272 25.0976 20.3274Z" fill="#626663"/>
</svg>
