<svg width="36" height="35" viewBox="0 0 36 35" fill="none" xmlns="http://www.w3.org/2000/svg">
<path d="M35.8284 30.999C35.8284 31.4988 35.7429 31.9657 35.5719 32.3998C35.4009 32.8338 35.1576 33.2153 34.8419 33.5441C34.5263 33.8729 34.158 34.1294 33.7371 34.3135C33.3162 34.4977 32.8559 34.5897 32.3561 34.5897H3.7091C3.20929 34.5897 2.73579 34.4977 2.28859 34.3135C1.8414 34.1294 1.44681 33.8729 1.10484 33.5441C0.76286 33.2153 0.49323 32.8338 0.29594 32.3998C0.0986402 31.9657 0 31.4988 0 30.999V11.3092C0 10.3096 0.34855 9.46122 1.04565 8.76412C1.74275 8.06702 2.59111 7.71852 3.59073 7.71852H32.2377C33.2373 7.71852 34.0857 8.06702 34.7828 8.76412C35.4799 9.46122 35.8284 10.3096 35.8284 11.3092V16.6755H26.8713C25.8717 16.6755 25.0233 17.0175 24.3262 17.7015C23.6291 18.3854 23.2806 19.2272 23.2806 20.2268C23.3069 20.9108 23.4516 21.5158 23.7146 22.0419C23.9251 22.4891 24.2736 22.8968 24.7603 23.2651C25.2469 23.6334 25.9506 23.8175 26.8713 23.8175H35.8284V30.999ZM30.462 5.90338H12.5479C13.9684 5.16682 15.31 4.45657 16.5726 3.77262C17.6775 3.19389 18.7692 2.61517 19.8477 2.03644C20.9262 1.45772 21.768 1.01052 22.373 0.694851C23.2937 0.195051 24.1158 -0.035129 24.8392 0.00433104C25.5626 0.043791 26.1742 0.168741 26.674 0.379191C27.2527 0.668551 27.7526 1.04998 28.1734 1.52348L30.462 5.90338ZM25.0957 20.2268C25.0957 19.727 25.2667 19.3061 25.6086 18.9641C25.9506 18.6222 26.3715 18.4512 26.8713 18.4512C27.3711 18.4512 27.792 18.6222 28.134 18.9641C28.476 19.3061 28.647 19.727 28.647 20.2268C28.647 20.7266 28.476 21.1541 28.134 21.5092C27.792 21.8643 27.3711 22.0419 26.8713 22.0419C26.3715 22.0419 25.9506 21.8643 25.6086 21.5092C25.2667 21.1541 25.0957 20.7266 25.0957 20.2268Z" fill="url(#paint0_linear_1097_2110)"/>
<defs>
<linearGradient id="paint0_linear_1097_2110" x1="17.9142" y1="0" x2="17.9142" y2="34.5897" gradientUnits="userSpaceOnUse">
<stop stop-color="#F5B73B"/>
<stop offset="1" stop-color="#24ee89"/>
</linearGradient>
</defs>
</svg>
