<svg width="33" height="31" viewBox="0 0 33 31" fill="none" xmlns="http://www.w3.org/2000/svg">
<path d="M15 0L30 6V8H28C28 8.27083 27.8932 8.50521 27.6797 8.70312C27.4661 8.90104 27.2135 9 26.9219 9H3.07812C2.78646 9 2.53385 8.90104 2.32031 8.70312C2.10677 8.50521 2 8.27083 2 8H0V6L15 0ZM4 10H8V22H10V10H14V22H16V10H20V22H22V10H26V22H26.9219C27.2135 22 27.4661 22.099 27.6797 22.2969C27.8932 22.4948 28 22.7292 28 23V24H2V23C2 22.7292 2.10677 22.4948 2.32031 22.2969C2.53385 22.099 2.78646 22 3.07812 22H4V10ZM28.9219 25C29.2135 25 29.4661 25.099 29.6797 25.2969C29.8932 25.4948 30 25.7292 30 26V28H0V26C0 25.7292 0.106771 25.4948 0.320312 25.2969C0.533854 25.099 0.786458 25 1.07812 25H28.9219Z" fill="#7c6637"/>
<path fill-rule="evenodd" clip-rule="evenodd" d="M24.8734 17.0002H27.1034C27.4394 16.9952 27.7684 17.1052 28.0334 17.3122C28.3004 17.5222 28.4854 17.8172 28.5534 18.1492L28.7484 19.0842C28.8331 19.1295 28.9164 19.1762 28.9984 19.2242L29.9434 18.9142C30.1378 18.8514 30.3431 18.8296 30.5464 18.8501C30.7496 18.8706 30.9465 18.9329 31.1244 19.0332C31.3444 19.1572 31.5294 19.3352 31.6584 19.5532L32.7834 21.4092C32.9653 21.6968 33.037 22.0404 32.9854 22.3767C32.9337 22.7131 32.7622 23.0194 32.5024 23.2392H32.5004L31.7584 23.8722V24.1302L32.4914 24.7832C32.7462 24.9994 32.9159 25.299 32.9703 25.6287C33.0247 25.9583 32.9602 26.2966 32.7884 26.5832L31.6984 28.4432V28.4452C31.5687 28.6622 31.3849 28.8418 31.1649 28.9665C30.9449 29.0911 30.6963 29.1565 30.4434 29.1562C30.2871 29.157 30.1315 29.1334 29.9824 29.0862L29.9774 29.0842L29.0404 28.7752C28.9571 28.8245 28.8724 28.8715 28.7864 28.9162L28.5924 29.8502C28.524 30.1823 28.3397 30.4793 28.0724 30.6882C27.8068 30.896 27.4777 31.0062 27.1404 31.0002H24.8924C24.5559 31.0057 24.2276 30.8956 23.9624 30.6882C23.6954 30.4796 23.5111 30.183 23.4424 29.8512L23.2474 28.9152C23.163 28.8705 23.0796 28.8238 22.9974 28.7752L22.0524 29.0852C21.858 29.1479 21.6527 29.1697 21.4495 29.1492C21.2462 29.1288 21.0494 29.0664 20.8714 28.9662C20.6511 28.8433 20.467 28.6646 20.3374 28.4482L19.2114 26.5882C19.0368 26.3064 18.9671 25.9721 19.0145 25.644C19.0618 25.316 19.2233 25.015 19.4704 24.7942L20.2174 23.8522L19.5044 23.2172C19.2494 23.0007 19.0795 22.7007 19.0253 22.3706C18.9711 22.0405 19.036 21.7018 19.2084 21.4152L19.2104 21.4132L20.3374 19.5532C20.4653 19.3382 20.6465 19.1599 20.8636 19.0356C21.0808 18.9114 21.3263 18.8454 21.5764 18.8442C21.7271 18.8362 21.8758 18.8505 22.0224 18.8872L22.0444 18.8932L22.9794 19.2222C23.0614 19.1742 23.1448 19.1282 23.2294 19.0842L23.4234 18.1502C23.4919 17.818 23.6762 17.521 23.9434 17.3122C24.2074 17.1052 24.5374 16.9952 24.8734 17.0002ZM26.0004 22.0002C25.47 22.0002 24.9613 22.2109 24.5862 22.5859C24.2112 22.961 24.0004 23.4697 24.0004 24.0002C24.0004 24.5306 24.2112 25.0393 24.5862 25.4144C24.9613 25.7894 25.47 26.0002 26.0004 26.0002C26.5309 26.0002 27.0396 25.7894 27.4147 25.4144C27.7897 25.0393 28.0004 24.5306 28.0004 24.0002C28.0004 23.4697 27.7897 22.961 27.4147 22.5859C27.0396 22.2109 26.5309 22.0002 26.0004 22.0002ZM23.0004 24.0002C23.0004 23.2045 23.3165 22.4415 23.8791 21.8788C24.4417 21.3162 25.2048 21.0002 26.0004 21.0002C26.7961 21.0002 27.5591 21.3162 28.1218 21.8788C28.6844 22.4415 29.0004 23.2045 29.0004 24.0002C29.0004 24.7958 28.6844 25.5589 28.1218 26.1215C27.5591 26.6841 26.7961 27.0002 26.0004 27.0002C25.2048 27.0002 24.4417 26.6841 23.8791 26.1215C23.3165 25.5589 23.0004 24.7958 23.0004 24.0002Z" fill="#24ee89"/>
</svg>
