<svg width="35" height="35" viewBox="0 0 35 35" fill="none" xmlns="http://www.w3.org/2000/svg">
<circle cx="17.5" cy="17.5" r="17.5" fill="#7c6637"/>
<path d="M15.9836 13.7319C15.9836 14.3571 15.9836 14.9629 16.1839 15.5304C14.0781 17.9636 8 24.8832 8 24.8832L8.14169 26.6288C8.14169 26.6288 9.84199 28.2156 10.0961 27.9752C10.8485 27.2539 11.3078 26.7634 11.3078 26.7634L11.6615 24.6789L13.9633 24.512L14.1479 22.2615L16.5728 22.2159L16.5968 19.8072L19.1712 19.9082L19.6109 19.0022C20.3682 19.3244 21.0571 19.4542 21.9415 19.4542C25.2883 19.4542 28 16.8864 28 13.7223C28 10.5582 25.2864 8 21.9395 8C18.5927 8 15.9836 10.5678 15.9836 13.7319ZM25.2057 12.6163C25.2057 12.9858 25.0944 13.347 24.8858 13.6542C24.6773 13.9614 24.3808 14.2009 24.034 14.3423C23.6871 14.4837 23.3055 14.5207 22.9373 14.4486C22.569 14.3765 22.2308 14.1986 21.9654 13.9373C21.6999 13.676 21.5191 13.3432 21.4459 12.9808C21.3726 12.6184 21.4102 12.2428 21.5539 11.9014C21.6975 11.56 21.9408 11.2683 22.253 11.063C22.5652 10.8577 22.9321 10.7482 23.3076 10.7482C23.5569 10.7479 23.8039 10.796 24.0343 10.8898C24.2647 10.9836 24.474 11.1212 24.6504 11.2948C24.8267 11.4683 24.9665 11.6743 25.0618 11.9011C25.1571 12.1279 25.206 12.3709 25.2057 12.6163Z" fill="#24ee89"/>
</svg>
