<svg width="35" height="35" viewBox="0 0 35 35" fill="none" xmlns="http://www.w3.org/2000/svg">
<circle cx="17.5" cy="17.5" r="17.5" fill="#7c6637"/>
<path d="M8 15H27C27.2652 15 27.5196 15.1054 27.7071 15.2929C27.8946 15.4804 28 15.7348 28 16V26C28 26.2652 27.8946 26.5196 27.7071 26.7071C27.5196 26.8946 27.2652 27 27 27H9C8.73478 27 8.48043 26.8946 8.29289 26.7071C8.10536 26.5196 8 26.2652 8 26V15ZM9 9H24V13H8V10C8 9.73478 8.10536 9.48043 8.29289 9.29289C8.48043 9.10536 8.73478 9 9 9ZM21 20V22H24V20H21Z" fill="#24ee89"/>
</svg>
