<svg width="35" height="35" viewBox="0 0 35 35" fill="none" xmlns="http://www.w3.org/2000/svg">
<circle cx="17.5" cy="17.5" r="17.5" fill="#7c6637"/>
<path d="M24.72 20.8408C25.07 19.9908 25.26 19.0808 25.26 18.0808C25.26 17.3608 25.15 16.6708 24.96 16.0308C24.31 16.1808 23.63 16.2608 22.92 16.2608C21.466 16.2623 20.0329 15.9143 18.7415 15.246C17.4502 14.5777 16.3384 13.6087 15.5 12.4208C14.604 14.5915 12.9117 16.3374 10.77 17.3008C10.73 17.5508 10.73 17.8208 10.73 18.0808C10.73 19.0355 10.918 19.9808 11.2834 20.8629C11.6487 21.7449 12.1843 22.5463 12.8593 23.2214C14.2227 24.5848 16.0719 25.3508 18 25.3508C19.05 25.3508 20.06 25.1208 20.97 24.7108C21.54 25.8008 21.8 26.3408 21.78 26.3408C20.14 26.8908 18.87 27.1608 18 27.1608C15.58 27.1608 13.27 26.2108 11.57 24.5008C10.535 23.4707 9.76627 22.2043 9.33 20.8108H8V16.2608H9.09C9.42024 14.6533 10.1795 13.1652 11.2872 11.9543C12.3949 10.7435 13.8097 9.85516 15.3815 9.38352C16.9533 8.91187 18.6235 8.87453 20.2149 9.27546C21.8062 9.6764 23.2593 10.5007 24.42 11.6608C25.6798 12.9163 26.5393 14.517 26.89 16.2608H28V20.8108H27.94L24.38 24.0808L19.08 23.4808V21.8108H23.91L24.72 20.8408ZM15.27 17.8508C15.57 17.8508 15.86 17.9708 16.07 18.1908C16.281 18.4035 16.3995 18.6911 16.3995 18.9908C16.3995 19.2904 16.281 19.578 16.07 19.7908C15.86 20.0008 15.57 20.1208 15.27 20.1208C14.64 20.1208 14.13 19.6208 14.13 18.9908C14.13 18.3608 14.64 17.8508 15.27 17.8508ZM20.72 17.8508C21.35 17.8508 21.85 18.3608 21.85 18.9908C21.85 19.6208 21.35 20.1208 20.72 20.1208C20.09 20.1208 19.58 19.6208 19.58 18.9908C19.58 18.6884 19.7001 18.3984 19.9139 18.1847C20.1277 17.9709 20.4177 17.8508 20.72 17.8508Z" fill="#24ee89"/>
</svg>
