<svg width="43" height="34" viewBox="0 0 43 34" fill="none" xmlns="http://www.w3.org/2000/svg">
<rect width="43" height="34" fill="#7c6637"/>
<path d="M6.74667 23V10.4987H10.384V23H6.74667ZM15.3703 23H11.8397V10.4987H18.8797V13.2187L15.3703 13.0053V15.9067H18.2503V18.552L15.3703 18.3387V23ZM23.4686 23.224C22.921 23.224 22.409 23.1742 21.9326 23.0747C21.4633 22.9822 21.0686 22.8578 20.7486 22.7013C20.4286 22.5449 20.1655 22.3956 19.9592 22.2533C19.7601 22.1111 19.593 21.9689 19.4579 21.8267L19.7246 19.2347C20.0161 19.6258 20.4072 19.9671 20.8979 20.2587C21.3886 20.5431 21.9184 20.6853 22.4872 20.6853C23.0561 20.6853 23.465 20.6249 23.7139 20.504C23.9699 20.3831 24.0979 20.1627 24.0979 19.8427C24.0979 19.5013 23.9521 19.2098 23.6606 18.968C23.3761 18.7262 22.8819 18.4347 22.1779 18.0933C21.9219 17.9653 21.705 17.8516 21.5273 17.752C21.3495 17.6453 21.1113 17.4747 20.8126 17.24C20.521 16.9982 20.2828 16.7493 20.0979 16.4933C19.913 16.2302 19.7495 15.896 19.6072 15.4907C19.465 15.0782 19.3939 14.6373 19.3939 14.168C19.3939 11.6293 20.8268 10.36 23.6926 10.36C24.1477 10.36 24.5744 10.4098 24.9726 10.5093C25.3779 10.6018 25.6944 10.7049 25.9219 10.8187C26.1495 10.9324 26.3557 11.0676 26.5406 11.224C26.7326 11.3733 26.8535 11.48 26.9032 11.544C26.953 11.6009 26.9886 11.6471 27.0099 11.6827L26.4766 13.7413C26.1992 13.4142 25.8508 13.1724 25.4313 13.016C25.0188 12.8524 24.6241 12.7707 24.2473 12.7707C23.337 12.7707 22.8819 13.0551 22.8819 13.624C22.8819 13.7733 22.9104 13.9084 22.9672 14.0293C23.0241 14.1502 23.1166 14.2604 23.2446 14.36C23.3726 14.4596 23.4899 14.5449 23.5966 14.616C23.7104 14.6871 23.8633 14.776 24.0553 14.8827C24.2544 14.9822 24.4037 15.064 24.5033 15.128C25.5415 15.5689 26.3024 16.0916 26.7859 16.696C27.2766 17.3004 27.5219 18.0364 27.5219 18.904C27.5219 20.312 27.1735 21.3858 26.4766 22.1253C25.7868 22.8578 24.7841 23.224 23.4686 23.224ZM36.5455 22.1147L36.4495 22.232C36.3784 22.3031 36.2575 22.3956 36.0868 22.5093C35.9233 22.616 35.7242 22.7262 35.4895 22.84C35.2619 22.9467 34.9562 23.0356 34.5722 23.1067C34.1882 23.1849 33.7757 23.224 33.3348 23.224C32.4033 23.224 31.6068 23.0711 30.9455 22.7653C30.2842 22.4524 29.7651 22.0009 29.3882 21.4107C29.0184 20.8133 28.7517 20.1413 28.5882 19.3947C28.4246 18.6409 28.3428 17.7698 28.3428 16.7813C28.3428 15.7289 28.4246 14.8222 28.5882 14.0613C28.7517 13.2933 29.0219 12.6213 29.3988 12.0453C29.7828 11.4622 30.3091 11.0249 30.9775 10.7333C31.6459 10.4418 32.4602 10.296 33.4202 10.296C33.8611 10.296 34.2735 10.3351 34.6575 10.4133C35.0486 10.4916 35.3544 10.5804 35.5748 10.68C35.8024 10.7796 36.0051 10.8933 36.1828 11.0213C36.3677 11.1493 36.4815 11.2382 36.5242 11.288C36.5739 11.3378 36.6095 11.3769 36.6308 11.4053L36.4708 13.8587H34.8495L34.2948 12.5893C34.1668 12.5538 34.0602 12.536 33.9748 12.536C33.4984 12.536 33.1322 12.6462 32.8762 12.8667C32.6202 13.08 32.4246 13.5031 32.2895 14.136C32.1544 14.7618 32.0868 15.6649 32.0868 16.8453C32.0868 17.5493 32.1295 18.1644 32.2148 18.6907C32.3073 19.2169 32.4175 19.6222 32.5455 19.9067C32.6735 20.184 32.8264 20.408 33.0042 20.5787C33.1819 20.7493 33.3419 20.8596 33.4842 20.9093C33.6264 20.952 33.7793 20.9733 33.9428 20.9733C34.3055 20.9733 34.6859 20.9307 35.0842 20.8453C35.4824 20.7529 35.8095 20.6142 36.0655 20.4293L36.5455 22.1147Z" fill="#24ee89"/>
</svg>
