<svg width="35" height="35" viewBox="0 0 35 35" fill="none" xmlns="http://www.w3.org/2000/svg">
<circle cx="17.5" cy="17.5" r="17.5" fill="#7c6637"/>
<path d="M19.91 7.41L17.83 9.5H20C22.1217 9.5 24.1566 10.3429 25.6569 11.8431C27.1571 13.3434 28 15.3783 28 17.5H26C26 15.9087 25.3679 14.3826 24.2426 13.2574C23.1174 12.1321 21.5913 11.5 20 11.5H17.83L19.92 13.59L18.5 15L14 10.5L15.41 9.09L18.5 6L19.91 7.41ZM8 16.5V26.5H24V16.5H8ZM10 23.06V19.95C10.6011 19.6009 11.1009 19.1011 11.45 18.5H20.55C20.8991 19.1011 21.3989 19.6009 22 19.95V23.06C21.4075 23.4091 20.915 23.9051 20.57 24.5H11.45C11.0995 23.9025 10.5999 23.4064 10 23.06ZM16 23.5C16.828 23.5 17.5 22.605 17.5 21.5C17.5 20.395 16.828 19.5 16 19.5C15.172 19.5 14.5 20.395 14.5 21.5C14.5 22.605 15.172 23.5 16 23.5Z" fill="#24ee89"/>
</svg>
