<svg width="35" height="35" viewBox="0 0 35 35" fill="none" xmlns="http://www.w3.org/2000/svg">
<circle cx="17.5" cy="17.5" r="17.5" fill="#7c6637"/>
<path d="M22.5 11.889L21.88 10.654C21.6305 10.157 21.2477 9.73913 20.7745 9.44705C20.3012 9.15498 19.7561 9.0002 19.2 9H11.3C10.7439 9.0002 10.1988 9.15498 9.72551 9.44705C9.25226 9.73913 8.86951 10.157 8.62 10.654L8 11.89M15.25 9V22H13.8" stroke="#24ee89" stroke-width="1.5" stroke-linecap="round" stroke-linejoin="round"/>
<path fill-rule="evenodd" clip-rule="evenodd" d="M22.75 26.5C24.2087 26.5 25.6076 25.9205 26.6391 24.8891C27.6705 23.8576 28.25 22.4587 28.25 21C28.25 19.5413 27.6705 18.1424 26.6391 17.1109C25.6076 16.0795 24.2087 15.5 22.75 15.5C21.2913 15.5 19.8924 16.0795 18.8609 17.1109C17.8295 18.1424 17.25 19.5413 17.25 21C17.25 22.4587 17.8295 23.8576 18.8609 24.8891C19.8924 25.9205 21.2913 26.5 22.75 26.5ZM22.75 17.507C22.8826 17.507 23.0098 17.5597 23.1036 17.6534C23.1973 17.7472 23.25 17.8744 23.25 18.007V20.5H25.743C25.8756 20.5 26.0028 20.5527 26.0966 20.6464C26.1903 20.7402 26.243 20.8674 26.243 21C26.243 21.1326 26.1903 21.2598 26.0966 21.3536C26.0028 21.4473 25.8756 21.5 25.743 21.5H23.25V23.993C23.25 24.1256 23.1973 24.2528 23.1036 24.3466C23.0098 24.4403 22.8826 24.493 22.75 24.493C22.6174 24.493 22.4902 24.4403 22.3964 24.3466C22.3027 24.2528 22.25 24.1256 22.25 23.993V21.5H19.757C19.6244 21.5 19.4972 21.4473 19.4034 21.3536C19.3097 21.2598 19.257 21.1326 19.257 21C19.257 20.8674 19.3097 20.7402 19.4034 20.6464C19.4972 20.5527 19.6244 20.5 19.757 20.5H22.25V18.007C22.25 17.8744 22.3027 17.7472 22.3964 17.6534C22.4902 17.5597 22.6174 17.507 22.75 17.507Z" fill="#24ee89"/>
</svg>
