<svg width="31" height="35" viewBox="0 0 31 35" fill="none" xmlns="http://www.w3.org/2000/svg">
<path d="M25.3734 7.01071H4.16474C3.91143 7.05971 3.65041 7.05212 3.40038 6.98846C3.15035 6.9248 2.91749 6.80667 2.71849 6.64251C2.51949 6.47835 2.35926 6.27223 2.24929 6.03891C2.13931 5.8056 2.08231 5.55086 2.08237 5.29294V5.25971L24.4985 4.38683V2.30522C24.535 1.99464 24.5005 1.67982 24.3975 1.38453C24.2945 1.08925 24.1257 0.821216 23.9039 0.60068C23.6821 0.380144 23.4131 0.212868 23.1172 0.111485C22.8212 0.0101014 22.5061 -0.0227387 22.1956 0.0154442L2.29236 3.24981C1.62007 3.49684 1.03978 3.94411 0.62985 4.53126C0.219917 5.11841 7.35513e-05 5.81716 0 6.53316L0 25.3761C0 26.072 0.276544 26.7394 0.768797 27.2315C1.26105 27.7236 1.92869 28 2.62484 28H25.3734C26.0696 28 26.7372 27.7236 27.2295 27.2315C27.7217 26.7394 27.9983 26.072 27.9983 25.3761V9.61535L28 9.54363C28 8.87093 27.7327 8.22578 27.2568 7.75011C26.781 7.27444 26.1356 7.00721 25.4627 7.00721L25.3699 7.00896L25.3734 7.01071ZM22.7486 19.2555C22.0522 19.2553 21.3844 18.9785 20.8922 18.4861C20.3999 17.9937 20.1235 17.326 20.1237 16.6299C20.124 15.9337 20.4008 15.2662 20.8934 14.7741C21.386 14.2821 22.0539 14.0057 22.7503 14.006C23.0951 14.0061 23.4366 14.0741 23.7551 14.2061C24.0736 14.3381 24.363 14.5316 24.6067 14.7754C24.8505 15.0192 25.0438 15.3086 25.1756 15.6271C25.3075 15.9456 25.3753 16.2869 25.3752 16.6316C25.3751 16.9763 25.307 17.3176 25.175 17.636C25.0429 17.9544 24.8494 18.2437 24.6055 18.4873C24.3616 18.731 24.0721 18.9242 23.7535 19.056C23.4349 19.1878 23.0934 19.2556 22.7486 19.2555Z" fill="#7c6637"/>
<path d="M23 32.375C22.7481 32.375 22.5372 32.291 22.3671 32.123C22.197 31.955 22.1117 31.7473 22.1111 31.5C22.1105 31.2527 22.1959 31.045 22.3671 30.877C22.5384 30.709 22.7493 30.625 23 30.625C23.2507 30.625 23.4619 30.709 23.6338 30.877C23.8056 31.045 23.8907 31.2527 23.8889 31.5C23.8871 31.7473 23.8018 31.9553 23.6329 32.1239C23.464 32.2925 23.253 32.3762 23 32.375ZM23 28.875C22.7481 28.875 22.5372 28.791 22.3671 28.623C22.197 28.455 22.1117 28.2473 22.1111 28V24.5C22.1111 24.2521 22.1964 24.0444 22.3671 23.877C22.5378 23.7096 22.7487 23.6256 23 23.625C23.2513 23.6244 23.4625 23.7084 23.6338 23.877C23.805 24.0456 23.8901 24.2532 23.8889 24.5V28C23.8889 28.2479 23.8036 28.4559 23.6329 28.6239C23.4622 28.7919 23.2513 28.8756 23 28.875ZM16.7778 28C16.7778 28.7875 16.9372 29.5132 17.256 30.177C17.5748 30.8408 18.008 31.4131 18.5556 31.8937V30.625C18.5556 30.3771 18.6409 30.1694 18.8116 30.002C18.9822 29.8346 19.1932 29.7506 19.4444 29.75C19.6957 29.7494 19.907 29.8334 20.0782 30.002C20.2495 30.1706 20.3345 30.3782 20.3333 30.625V34.125C20.3333 34.3729 20.248 34.5809 20.0773 34.7489C19.9067 34.9169 19.6957 35.0006 19.4444 35H15.8889C15.637 35 15.4261 34.916 15.256 34.748C15.0859 34.58 15.0006 34.3723 15 34.125C14.9994 33.8777 15.0847 33.67 15.256 33.502C15.4273 33.334 15.6382 33.25 15.8889 33.25H17.4222C16.6667 32.6083 16.0741 31.8354 15.6444 30.9312C15.2148 30.0271 15 29.05 15 28C15 26.6292 15.363 25.3896 16.0889 24.2812C16.8148 23.1729 17.763 22.3271 18.9333 21.7437C19.1407 21.6271 19.3594 21.6198 19.5893 21.7219C19.8193 21.824 19.971 21.9917 20.0444 22.225C20.1179 22.4583 20.1067 22.6844 20.0107 22.9031C19.9147 23.1219 19.763 23.2896 19.5556 23.4062C18.7259 23.8583 18.0557 24.4892 17.5449 25.2989C17.0341 26.1085 16.7784 27.0089 16.7778 28ZM29.2222 28C29.2222 27.2125 29.0631 26.4868 28.7449 25.823C28.4267 25.1592 27.9932 24.5869 27.4444 24.1062V25.375C27.4444 25.6229 27.3591 25.8309 27.1884 25.9989C27.0178 26.1669 26.8068 26.2506 26.5556 26.25C26.3043 26.2494 26.0933 26.1654 25.9227 25.998C25.752 25.8306 25.6667 25.6229 25.6667 25.375V21.875C25.6667 21.6271 25.752 21.4194 25.9227 21.252C26.0933 21.0846 26.3043 21.0006 26.5556 21H30.1111C30.363 21 30.5742 21.084 30.7449 21.252C30.9156 21.42 31.0006 21.6277 31 21.875C30.9994 22.1223 30.9141 22.3303 30.744 22.4989C30.5739 22.6675 30.363 22.7512 30.1111 22.75H28.5778C29.3333 23.3917 29.9259 24.1646 30.3556 25.0687C30.7852 25.9729 31 26.95 31 28C31 29.3708 30.637 30.6142 29.9111 31.7301C29.1852 32.846 28.237 33.6954 27.0667 34.2781C26.8593 34.3948 26.6409 34.3986 26.4116 34.2895C26.1822 34.1804 26.0302 34.0089 25.9556 33.775C25.8809 33.5411 25.8921 33.315 25.9893 33.0969C26.0865 32.8787 26.2382 32.711 26.4444 32.5937C27.2741 32.1417 27.9446 31.5111 28.456 30.702C28.9674 29.8929 29.2228 28.9922 29.2222 28Z" fill="#24ee89"/>
</svg>
