<svg width="100" height="100" viewBox="0 0 100 100" fill="none" xmlns="http://www.w3.org/2000/svg">
<circle cx="50" cy="50" r="50" fill="#222121"/>
<circle cx="50" cy="50" r="34.5" stroke="#B8DBC8" stroke-dasharray="10 10"/>
<path d="M40 1H61V10C61 11.6569 59.6569 13 58 13H43C41.3431 13 40 11.6569 40 10V1Z" fill="#B8DBC8"/>
<path d="M84.1897 13.8063L96.4699 30.8414L89.1692 36.1044C87.8251 37.0732 85.9501 36.7691 84.9813 35.4251L76.2097 23.2571C75.2408 21.9131 75.5449 20.0381 76.8889 19.0692L84.1897 13.8063Z" fill="#B8DBC8"/>
<path d="M2.99585 31.0259L15.2905 14.0011L22.5868 19.2703C23.93 20.2403 24.2326 22.1155 23.2625 23.4588L14.4807 35.6193C13.5106 36.9625 11.6354 37.265 10.2922 36.295L2.99585 31.0259Z" fill="#B8DBC8"/>
<path d="M77.4321 79.7812C76.0889 78.8111 75.7864 76.9359 76.7564 75.5927L85.5383 63.4321C86.5083 62.0889 88.3835 61.7864 89.7267 62.7564L97.0231 68.0255L84.7284 85.0503L77.4321 79.7812Z" fill="#B8DBC8"/>
<path d="M11.3008 63.7543C12.6448 62.7854 14.5198 63.0896 15.4887 64.4336L24.2603 76.6015C25.2292 77.9456 24.9251 79.8206 23.581 80.7894L16.2803 86.0524L4.00002 69.0173L11.3008 63.7543Z" fill="#B8DBC8"/>
<path d="M40 90C40 88.3431 41.3431 87 43 87H58C59.6569 87 61 88.3431 61 90V99H40V90Z" fill="#B8DBC8"/>
<path d="M48.4293 58.2407C47.3532 59.5265 45.9073 60.4499 44.288 60.8855C42.6688 61.321 40.9548 61.2476 39.3788 60.6752C37.8027 60.1028 36.4411 59.0591 35.4788 57.686C34.5165 56.3128 34.0002 54.6768 34 53C34 49.262 36.66 46.8563 40.2067 43.648C43.3007 40.848 47.0713 37.4367 50.3333 32C53.5953 37.4367 57.366 40.848 60.46 43.648C64.0067 46.8563 66.6667 49.262 66.6667 53C66.6665 54.6768 66.1502 56.3128 65.1879 57.686C64.2256 59.0591 62.864 60.1028 61.2879 60.6752C59.7119 61.2476 57.9978 61.321 56.3786 60.8855C54.7594 60.4499 53.3135 59.5265 52.2373 58.2407C53.2783 60.5998 54.5129 62.8685 55.9287 65.0237C56.4677 65.8403 55.882 67 54.9067 67H45.76C44.7823 67 44.1967 65.8403 44.738 65.0237C46.1537 62.8685 47.3884 60.5998 48.4293 58.2407Z" fill="url(#paint0_linear_1136_2138)"/>
<defs>
<linearGradient id="paint0_linear_1136_2138" x1="34" y1="53.5" x2="67" y2="53.5" gradientUnits="userSpaceOnUse">
<stop stop-color="#F5B73B"/>
<stop offset="1" stop-color="#24ee89"/>
</linearGradient>
</defs>
</svg>
