<svg width="62" height="57" viewBox="0 0 62 57" fill="none" xmlns="http://www.w3.org/2000/svg">
<path d="M41.8721 0.904193C42.108 0.404821 42.704 0.19123 43.2034 0.427123V0.427123C43.7028 0.663017 43.9164 1.25907 43.6805 1.75844L37.7007 14.4171L35.8923 13.5629L41.8721 0.904193Z" fill="#222121"/>
<path d="M18.319 1.75877C18.0831 1.25942 18.2967 0.66335 18.796 0.427414V0.427414C19.2954 0.191478 19.8914 0.405019 20.1274 0.904371L26.1082 13.5626L24.2998 14.417L18.319 1.75877Z" fill="#222121"/>
<rect x="1.5" y="15.2086" width="59" height="40" rx="8.5" stroke="#222121" stroke-width="3"/>
<rect x="6" y="19.7086" width="50" height="30" rx="5" fill="#222121"/>
<path d="M38 33.9766C39.3333 34.7464 39.3333 36.6709 38 37.4407L29 42.6368C27.6667 43.4066 26 42.4444 26 40.9048V30.5125C26 28.9729 27.6667 28.0106 29 28.7804L38 33.9766Z" fill="url(#paint0_linear_1135_2117)"/>
<defs>
<linearGradient id="paint0_linear_1135_2117" x1="26" y1="36" x2="38.5" y2="36" gradientUnits="userSpaceOnUse">
<stop stop-color="#F5B73B"/>
<stop offset="1" stop-color="#24ee89"/>
</linearGradient>
</defs>
</svg>
