<svg width="39" height="38" viewBox="0 0 39 38" fill="none" xmlns="http://www.w3.org/2000/svg">
<circle cx="18.8069" cy="18.75" r="17.75" fill="#221F2E"/>
<path d="M3.55688 9H6.62688C10.7953 9 14.5265 6.41427 15.9902 2.51124L16.5569 1" stroke="url(#paint0_linear_1135_2095)"/>
<path d="M30.5852 5.08407L30.2613 8.13693C29.8216 12.2821 31.9993 16.2653 35.7261 18.1325L37.1692 18.8554" stroke="url(#paint1_linear_1135_2095)"/>
<path d="M9.92005 34.446L9.69784 31.384C9.39611 27.2265 6.54709 23.6922 2.54835 22.515L1.00006 22.0591" stroke="url(#paint2_linear_1135_2095)"/>
<path d="M31.9913 30.9836L29.8187 31.2203C26.4814 31.5838 23.66 33.8545 22.5915 37.037V37.037" stroke="url(#paint3_linear_1135_2095)"/>
<circle cx="19.0569" cy="19" r="9.5" stroke="url(#paint4_linear_1135_2095)"/>
<path d="M20.7119 23.8591C20.1627 24.0611 19.6416 24.1423 19.1488 24.1026C18.6576 24.0593 18.2314 23.9088 17.8703 23.6511C17.5082 23.3908 17.2471 23.0388 17.0869 22.5953C16.9568 22.2496 16.9071 21.9047 16.9379 21.5604C16.9676 21.2134 17.0662 20.8972 17.2336 20.6116C17.4027 20.3224 17.6268 20.0962 17.9058 19.933L17.8881 19.885C17.4589 19.9279 17.066 19.8227 16.7095 19.5694C16.352 19.3134 16.0947 18.9676 15.9375 18.532C15.7819 18.1171 15.7504 17.7064 15.8431 17.3C15.9357 16.8936 16.1339 16.5271 16.4376 16.2005C16.7439 15.8729 17.137 15.6208 17.6169 15.4443C18.0915 15.2698 18.5503 15.2085 18.9932 15.2605C19.4361 15.3125 19.8245 15.4633 20.1584 15.7128C20.495 15.9613 20.7411 16.293 20.8968 16.708C21.054 17.1436 21.078 17.5751 20.9689 18.0027C20.8615 18.4267 20.6344 18.7599 20.2878 19.0024L20.3054 19.0504C20.621 18.9949 20.9342 19.0235 21.2451 19.1362C21.5549 19.2462 21.8349 19.4232 22.0851 19.6672C22.3343 19.9085 22.524 20.202 22.6541 20.5476C22.8142 20.9912 22.8394 21.4299 22.7296 21.8638C22.6215 22.2941 22.3944 22.6848 22.0483 23.0361C21.704 23.3837 21.2585 23.6581 20.7119 23.8591ZM20.3883 22.9792C20.7589 22.8429 21.0568 22.6652 21.282 22.4462C21.5071 22.2272 21.6528 21.9814 21.7191 21.7088C21.7853 21.4362 21.7658 21.1528 21.6606 20.8585C21.5442 20.5502 21.3637 20.3064 21.1191 20.1269C20.8745 19.9475 20.5912 19.8398 20.2692 19.8038C19.9499 19.7669 19.617 19.8122 19.2703 19.9397C18.9211 20.0681 18.6341 20.2509 18.4095 20.4879C18.1876 20.7239 18.0416 20.9895 17.9715 21.2846C17.9042 21.5788 17.9287 21.88 18.0451 22.1883C18.1503 22.4826 18.3151 22.7126 18.5395 22.8783C18.7666 23.043 19.0382 23.1353 19.3543 23.1552C19.6704 23.1752 20.015 23.1165 20.3883 22.9792ZM18.9585 19.0918C19.2518 18.9839 19.4902 18.8296 19.6737 18.629C19.8598 18.4273 19.9795 18.1971 20.0326 17.9385C20.0858 17.6798 20.0618 17.4086 19.9605 17.125C19.8558 16.8487 19.7017 16.6314 19.4983 16.4732C19.2938 16.3123 19.0576 16.2175 18.7898 16.1889C18.521 16.1576 18.236 16.1974 17.9347 16.3082C17.628 16.421 17.3812 16.5769 17.194 16.7758C17.0059 16.9722 16.8875 17.1974 16.8386 17.4514C16.7888 17.7028 16.8163 17.9667 16.9209 18.243C17.0222 18.5266 17.1756 18.7502 17.381 18.9137C17.5891 19.0763 17.8294 19.1741 18.1019 19.2071C18.3743 19.2401 18.6599 19.2016 18.9585 19.0918Z" fill="url(#paint5_linear_1135_2095)"/>
<defs>
<linearGradient id="paint0_linear_1135_2095" x1="10.0569" y1="1" x2="10.0569" y2="9" gradientUnits="userSpaceOnUse">
<stop stop-color="#F5B73B"/>
<stop offset="1" stop-color="#24ee89"/>
</linearGradient>
<linearGradient id="paint1_linear_1135_2095" x1="37.8548" y1="12.3917" x2="29.8995" y2="11.5478" gradientUnits="userSpaceOnUse">
<stop stop-color="#F5B73B"/>
<stop offset="1" stop-color="#24ee89"/>
</linearGradient>
<linearGradient id="paint2_linear_1135_2095" x1="1.47055" y1="28.5421" x2="9.44956" y2="27.963" gradientUnits="userSpaceOnUse">
<stop stop-color="#F5B73B"/>
<stop offset="1" stop-color="#24ee89"/>
</linearGradient>
<linearGradient id="paint3_linear_1135_2095" x1="27.5621" y1="36.4956" x2="27.0207" y2="31.525" gradientUnits="userSpaceOnUse">
<stop stop-color="#F5B73B"/>
<stop offset="1" stop-color="#24ee89"/>
</linearGradient>
<linearGradient id="paint4_linear_1135_2095" x1="19.0569" y1="9" x2="19.0569" y2="29" gradientUnits="userSpaceOnUse">
<stop stop-color="#F5B73B"/>
<stop offset="1" stop-color="#24ee89"/>
</linearGradient>
<linearGradient id="paint5_linear_1135_2095" x1="16.811" y1="12.3808" x2="21.989" y2="26.4588" gradientUnits="userSpaceOnUse">
<stop stop-color="#F5B73B"/>
<stop offset="1" stop-color="#24ee89"/>
</linearGradient>
</defs>
</svg>
