<svg width="57" height="35" viewBox="0 0 57 35" fill="none" xmlns="http://www.w3.org/2000/svg">
<path d="M14.9101 0.00220769C8.84001 0.00220769 0 10.9407 0 24.7132C0 29.0316 3.28463 35 6.90281 35C14.1392 35 15.5087 23.8848 28.2319 23.8848C40.9552 23.8848 42.3247 35 49.5611 35C53.1792 35 56.4639 29.0316 56.4639 24.7132C56.4639 10.9407 47.6239 0.00220769 41.5538 0.00220769C35.4838 0.00220769 34.2998 6.56043 28.2297 6.56043C22.1597 6.56043 20.9779 0 14.9079 0L14.9101 0.00220769ZM40.9309 8.07794C41.112 8.04039 41.291 8.07794 41.4831 8.07794C43.0227 8.07794 44.2442 9.29505 44.2442 10.8391C44.2472 11.2025 44.1778 11.5629 44.0401 11.8992C43.9023 12.2355 43.6991 12.5411 43.4421 12.798C43.1851 13.055 42.8796 13.2583 42.5432 13.396C42.2069 13.5337 41.8465 13.6031 41.4831 13.6002C39.9435 13.6002 38.722 12.3809 38.722 10.8391C38.722 9.49164 39.6608 8.33859 40.9309 8.07794ZM12.7674 8.63017H17.1852V13.048H21.603V17.4658H17.1852V21.8836H12.7674V17.4658H8.34964V13.048H12.7674V8.63017ZM36.5131 12.4957C36.6942 12.4582 36.8732 12.4957 37.0653 12.4957C38.6093 12.4957 39.8265 13.7151 39.8265 15.2569C39.8294 15.6203 39.76 15.9806 39.6223 16.317C39.4845 16.6533 39.2813 16.9588 39.0243 17.2158C38.7673 17.4728 38.4618 17.6761 38.1254 17.8138C37.7891 17.9515 37.4287 18.0209 37.0653 18.018C35.5235 18.018 34.3042 16.7965 34.3042 15.2569C34.3042 13.9094 35.2408 12.7564 36.5131 12.4957ZM45.3487 12.4957C45.5298 12.4582 45.7087 12.4957 45.9009 12.4957C47.4449 12.4957 48.662 13.7151 48.662 15.2569C48.665 15.6203 48.5956 15.9806 48.4579 16.317C48.3201 16.6533 48.1169 16.9588 47.8599 17.2158C47.6029 17.4728 47.2974 17.6761 46.961 17.8138C46.6247 17.9515 46.2643 18.0209 45.9009 18.018C45.5375 18.0209 45.1771 17.9515 44.8408 17.8138C44.5045 17.6761 44.1989 17.4728 43.942 17.2158C43.685 16.9588 43.4817 16.6533 43.344 16.317C43.2063 15.9806 43.1369 15.6203 43.1398 15.2569C43.1398 13.9094 44.0764 12.7564 45.3487 12.4957ZM40.9309 16.9135C41.112 16.876 41.291 16.9135 41.4831 16.9135C43.0249 16.9135 44.2442 18.1306 44.2442 19.6747C44.2472 20.0381 44.1778 20.3984 44.0401 20.7348C43.9023 21.0711 43.6991 21.3766 43.4421 21.6336C43.1851 21.8906 42.8796 22.0939 42.5432 22.2316C42.2069 22.3693 41.8465 22.4387 41.4831 22.4358C41.1197 22.4387 40.7593 22.3693 40.423 22.2316C40.0867 22.0939 39.7811 21.8906 39.5242 21.6336C39.2672 21.3766 39.0639 21.0711 38.9262 20.7348C38.7885 20.3984 38.7191 20.0381 38.722 19.6747C38.722 18.3228 39.6586 17.1742 40.9309 16.9135Z" fill="#A8A5A1"/>
<path d="M15 20L15 10" stroke="#A8A5A1" stroke-width="2" stroke-linecap="round"/>
<path d="M10 15L20 15" stroke="#A8A5A1" stroke-width="2" stroke-linecap="round"/>
</svg>
