<svg width="117" height="100" viewBox="0 0 117 100" fill="none" xmlns="http://www.w3.org/2000/svg">
<path d="M100 100V78L102 87L102.5 88.5L103.5 90.5L105 92.5L106.5 94L108.5 95.5L110.5 97L112 98L114 99L117 100H100Z" fill="#24ee89"/>
<path d="M0 15C0 6.71573 6.71573 0 15 0H85C93.2843 0 100 6.71573 100 15V100H0V15Z" fill="#24ee89"/>
<path d="M43.6449 63H36.8438L45.6776 36.8182H54.1023L62.9361 63H56.1349L49.9858 43.4148H49.7812L43.6449 63ZM42.7372 52.696H56.9531V57.5028H42.7372V52.696Z" fill="white"/>
</svg>
