<svg width="117" height="100" viewBox="0 0 117 100" fill="none" xmlns="http://www.w3.org/2000/svg">
<path d="M100 100V78L102 87L102.5 88.5L103.5 90.5L105 92.5L106.5 94L108.5 95.5L110.5 97L112 98L114 99L117 100H100Z" fill="#24ee89"/>
<path d="M0 15C0 6.71573 6.71573 0 15 0H85C93.2843 0 100 6.71573 100 15V100H0V15Z" fill="#24ee89"/>
<path d="M39.9815 63V36.8182H50.8991C52.8594 36.8182 54.5 37.0952 55.821 37.6491C57.1506 38.2031 58.1477 38.9787 58.8125 39.9759C59.4858 40.973 59.8224 42.1278 59.8224 43.4403C59.8224 44.4375 59.6136 45.3281 59.196 46.1122C58.7784 46.8878 58.2031 47.5312 57.4702 48.0426C56.7372 48.554 55.8892 48.9119 54.9261 49.1165V49.3722C55.983 49.4233 56.9588 49.7088 57.8537 50.2287C58.7571 50.7486 59.4815 51.473 60.027 52.402C60.5724 53.3224 60.8452 54.4134 60.8452 55.6747C60.8452 57.081 60.4872 58.3381 59.7713 59.446C59.0554 60.5455 58.0199 61.4148 56.6648 62.054C55.3097 62.6847 53.6648 63 51.7301 63H39.9815ZM46.3097 57.8991H50.2216C51.5938 57.8991 52.6037 57.6392 53.2514 57.1193C53.9077 56.5994 54.2358 55.875 54.2358 54.946C54.2358 54.2727 54.0781 53.6932 53.7628 53.2074C53.4474 52.7131 53 52.3338 52.4205 52.0696C51.8409 51.7969 51.1463 51.6605 50.3366 51.6605H46.3097V57.8991ZM46.3097 47.5824H49.8125C50.5028 47.5824 51.1165 47.4673 51.6534 47.2372C52.1903 47.0071 52.608 46.6747 52.9062 46.2401C53.2131 45.8054 53.3665 45.2812 53.3665 44.6676C53.3665 43.7898 53.0554 43.0994 52.4332 42.5966C51.8111 42.0938 50.9716 41.8423 49.9148 41.8423H46.3097V47.5824Z" fill="white"/>
</svg>
