<svg width="117" height="100" viewBox="0 0 117 100" fill="none" xmlns="http://www.w3.org/2000/svg">
<path d="M100 100V78L102 87L102.5 88.5L103.5 90.5L105 92.5L106.5 94L108.5 95.5L110.5 97L112 98L114 99L117 100H100Z" fill="#24ee89"/>
<path d="M0 15C0 6.71573 6.71573 0 15 0H85C93.2843 0 100 6.71573 100 15V100H0V15Z" fill="#24ee89"/>
<path d="M61.7472 46.304H55.3551C55.2699 45.6477 55.0952 45.0554 54.831 44.527C54.5668 43.9986 54.2173 43.5469 53.7827 43.1719C53.348 42.7969 52.8324 42.5114 52.2358 42.3153C51.6477 42.1108 50.9957 42.0085 50.2798 42.0085C49.0099 42.0085 47.9148 42.3196 46.9943 42.9418C46.0824 43.5639 45.3793 44.4631 44.8849 45.6392C44.3991 46.8153 44.1562 48.2386 44.1562 49.9091C44.1562 51.6477 44.4034 53.1051 44.8977 54.2812C45.4006 55.4489 46.1037 56.331 47.0071 56.9276C47.919 57.5156 48.9972 57.8097 50.2415 57.8097C50.9403 57.8097 51.5753 57.7202 52.1463 57.5412C52.7259 57.3622 53.233 57.1023 53.6676 56.7614C54.1108 56.4119 54.473 55.9901 54.7543 55.4957C55.044 54.9929 55.2443 54.4261 55.3551 53.7955L61.7472 53.8338C61.6364 54.9929 61.2997 56.1349 60.7372 57.2599C60.1832 58.3849 59.4205 59.4119 58.4489 60.3409C57.4773 61.2614 56.2926 61.9943 54.8949 62.5398C53.5057 63.0852 51.9119 63.358 50.1136 63.358C47.7443 63.358 45.6222 62.8381 43.7472 61.7983C41.8807 60.75 40.4063 59.2244 39.3239 57.2216C38.2415 55.2187 37.7003 52.7812 37.7003 49.9091C37.7003 47.0284 38.25 44.5866 39.3494 42.5838C40.4489 40.581 41.9361 39.0597 43.8111 38.0199C45.6861 36.9801 47.7869 36.4602 50.1136 36.4602C51.6989 36.4602 53.1648 36.6818 54.5114 37.125C55.858 37.5597 57.0426 38.1989 58.0653 39.0426C59.0881 39.8778 59.919 40.9048 60.5582 42.1236C61.1974 43.3423 61.5938 44.7358 61.7472 46.304Z" fill="white"/>
</svg>
