<svg width="117" height="100" viewBox="0 0 117 100" fill="none" xmlns="http://www.w3.org/2000/svg">
<path d="M100 100V78L102 87L102.5 88.5L103.5 90.5L105 92.5L106.5 94L108.5 95.5L110.5 97L112 98L114 99L117 100H100Z" fill="#24ee89"/>
<path d="M0 15C0 6.71573 6.71573 0 15 0H85C93.2843 0 100 6.71573 100 15V100H0V15Z" fill="#24ee89"/>
<path d="M47.6591 63H37.9815V36.8182H47.6463C50.3139 36.8182 52.6108 37.3423 54.5369 38.3906C56.4716 39.4304 57.9631 40.9304 59.0114 42.8906C60.0597 44.8423 60.5838 47.1776 60.5838 49.8963C60.5838 52.6236 60.0597 54.9673 59.0114 56.9276C57.9716 58.8878 56.4844 60.392 54.5497 61.4403C52.6151 62.4801 50.3182 63 47.6591 63ZM44.3097 57.6051H47.4162C48.8821 57.6051 50.1222 57.358 51.1364 56.8636C52.1591 56.3608 52.9304 55.5469 53.4503 54.4219C53.9787 53.2884 54.2429 51.7798 54.2429 49.8963C54.2429 48.0128 53.9787 46.5128 53.4503 45.3963C52.9219 44.2713 52.142 43.4616 51.1108 42.9673C50.0881 42.4645 48.8267 42.2131 47.3267 42.2131H44.3097V57.6051Z" fill="white"/>
</svg>
