<svg width="117" height="100" viewBox="0 0 117 100" fill="none" xmlns="http://www.w3.org/2000/svg">
<path d="M100 100V78L102 87L102.5 88.5L103.5 90.5L105 92.5L106.5 94L108.5 95.5L110.5 97L112 98L114 99L117 100H100Z" fill="#24ee89"/>
<path d="M0 40C0 17.9086 17.9086 0 40 0H60C82.0914 0 100 17.9086 100 40V100H0V40Z" fill="#24ee89"/>
<path d="M24.1335 44.6676C24.0483 43.7301 23.669 43.0014 22.9957 42.4815C22.331 41.9531 21.3807 41.6889 20.1449 41.6889C19.3267 41.6889 18.6449 41.7955 18.0994 42.0085C17.554 42.2216 17.1449 42.5156 16.8722 42.8906C16.5994 43.2571 16.4588 43.679 16.4503 44.1562C16.4332 44.5483 16.5099 44.8935 16.6804 45.1918C16.8594 45.4901 17.1151 45.7543 17.4474 45.9844C17.7884 46.206 18.1974 46.402 18.6747 46.5724C19.152 46.7429 19.6889 46.892 20.2855 47.0199L22.5355 47.5312C23.831 47.8125 24.973 48.1875 25.9616 48.6562C26.9588 49.125 27.794 49.6832 28.4673 50.331C29.1491 50.9787 29.6648 51.7244 30.0142 52.5682C30.3636 53.4119 30.5426 54.358 30.5511 55.4062C30.5426 57.0597 30.125 58.4787 29.2983 59.6634C28.4716 60.848 27.2827 61.7557 25.7315 62.3864C24.1889 63.017 22.3267 63.3324 20.1449 63.3324C17.9545 63.3324 16.0455 63.0043 14.4176 62.348C12.7898 61.6918 11.5241 60.6946 10.6207 59.3565C9.71733 58.0185 9.25284 56.3267 9.22727 54.2812H15.2869C15.3381 55.125 15.5639 55.8281 15.9645 56.3906C16.3651 56.9531 16.9148 57.3793 17.6136 57.669C18.321 57.9588 19.1392 58.1037 20.0682 58.1037C20.9205 58.1037 21.6449 57.9886 22.2415 57.7585C22.8466 57.5284 23.3111 57.2088 23.6349 56.7997C23.9588 56.3906 24.125 55.9219 24.1335 55.3935C24.125 54.8991 23.9716 54.4773 23.6733 54.1278C23.375 53.7699 22.9148 53.4631 22.2926 53.2074C21.679 52.9432 20.8949 52.7003 19.9403 52.4787L17.2045 51.8395C14.9375 51.3196 13.152 50.4801 11.848 49.321C10.544 48.1534 9.89631 46.5767 9.90483 44.5909C9.89631 42.9716 10.331 41.5526 11.2088 40.3338C12.0866 39.1151 13.3011 38.1648 14.8523 37.483C16.4034 36.8011 18.1719 36.4602 20.1577 36.4602C22.1861 36.4602 23.946 36.8054 25.4375 37.4957C26.9375 38.1776 28.1009 39.1364 28.9276 40.3722C29.7543 41.608 30.1761 43.0398 30.1932 44.6676H24.1335ZM49.5866 36.8182H55.902V53.706C55.902 55.6577 55.4375 57.358 54.5085 58.8068C53.5795 60.2472 52.2841 61.3636 50.6222 62.1562C48.9602 62.9403 47.0298 63.3324 44.831 63.3324C42.6065 63.3324 40.6634 62.9403 39.0014 62.1562C37.3395 61.3636 36.0483 60.2472 35.1278 58.8068C34.2074 57.358 33.7472 55.6577 33.7472 53.706V36.8182H40.0753V53.1562C40.0753 54.0597 40.2713 54.8651 40.6634 55.5724C41.0639 56.2798 41.6222 56.8338 42.3381 57.2344C43.054 57.6349 43.8849 57.8352 44.831 57.8352C45.777 57.8352 46.6037 57.6349 47.3111 57.2344C48.027 56.8338 48.5852 56.2798 48.9858 55.5724C49.3864 54.8651 49.5866 54.0597 49.5866 53.1562V36.8182ZM59.8683 36.8182H67.7049L74.3526 53.0284H74.6594L81.3072 36.8182H89.1438V63H82.9819V46.9176H82.7646L76.4748 62.8338H72.5373L66.2475 46.8281H66.0302V63H59.8683V36.8182Z" fill="white"/>
</svg>
