<svg width="117" height="100" viewBox="0 0 117 100" fill="none" xmlns="http://www.w3.org/2000/svg">
<path d="M100 100V78L102 87L102.5 88.5L103.5 90.5L105 92.5L106.5 94L108.5 95.5L110.5 97L112 98L114 99L117 100H100Z" fill="#24ee89"/>
<path d="M0 40C0 17.9086 17.9086 0 40 0H60C82.0914 0 100 17.9086 100 40V100H0V40Z" fill="#24ee89"/>
<path d="M62.7472 46.304H56.3551C56.2699 45.6477 56.0952 45.0554 55.831 44.527C55.5668 43.9986 55.2173 43.5469 54.7827 43.1719C54.348 42.7969 53.8324 42.5114 53.2358 42.3153C52.6477 42.1108 51.9957 42.0085 51.2798 42.0085C50.0099 42.0085 48.9148 42.3196 47.9943 42.9418C47.0824 43.5639 46.3793 44.4631 45.8849 45.6392C45.3991 46.8153 45.1562 48.2386 45.1562 49.9091C45.1562 51.6477 45.4034 53.1051 45.8977 54.2812C46.4006 55.4489 47.1037 56.331 48.0071 56.9276C48.919 57.5156 49.9972 57.8097 51.2415 57.8097C51.9403 57.8097 52.5753 57.7202 53.1463 57.5412C53.7259 57.3622 54.233 57.1023 54.6676 56.7614C55.1108 56.4119 55.473 55.9901 55.7543 55.4957C56.044 54.9929 56.2443 54.4261 56.3551 53.7955L62.7472 53.8338C62.6364 54.9929 62.2997 56.1349 61.7372 57.2599C61.1832 58.3849 60.4205 59.4119 59.4489 60.3409C58.4773 61.2614 57.2926 61.9943 55.8949 62.5398C54.5057 63.0852 52.9119 63.358 51.1136 63.358C48.7443 63.358 46.6222 62.8381 44.7472 61.7983C42.8807 60.75 41.4063 59.2244 40.3239 57.2216C39.2415 55.2187 38.7003 52.7812 38.7003 49.9091C38.7003 47.0284 39.25 44.5866 40.3494 42.5838C41.4489 40.581 42.9361 39.0597 44.8111 38.0199C46.6861 36.9801 48.7869 36.4602 51.1136 36.4602C52.6989 36.4602 54.1648 36.6818 55.5114 37.125C56.858 37.5597 58.0426 38.1989 59.0653 39.0426C60.0881 39.8778 60.919 40.9048 61.5582 42.1236C62.1974 43.3423 62.5938 44.7358 62.7472 46.304Z" fill="white"/>
</svg>
