<svg width="117" height="100" viewBox="0 0 117 100" fill="none" xmlns="http://www.w3.org/2000/svg">
<path d="M100 100V78L102 87L102.5 88.5L103.5 90.5L105 92.5L106.5 94L108.5 95.5L110.5 97L112 98L114 99L117 100H100Z" fill="#24ee89"/>
<path d="M0 40C0 17.9086 17.9086 0 40 0H60C82.0914 0 100 17.9086 100 40V100H0V40Z" fill="#24ee89"/>
<path d="M48.6591 63H38.9815V36.8182H48.6463C51.3139 36.8182 53.6108 37.3423 55.5369 38.3906C57.4716 39.4304 58.9631 40.9304 60.0114 42.8906C61.0597 44.8423 61.5838 47.1776 61.5838 49.8963C61.5838 52.6236 61.0597 54.9673 60.0114 56.9276C58.9716 58.8878 57.4844 60.392 55.5497 61.4403C53.6151 62.4801 51.3182 63 48.6591 63ZM45.3097 57.6051H48.4162C49.8821 57.6051 51.1222 57.358 52.1364 56.8636C53.1591 56.3608 53.9304 55.5469 54.4503 54.4219C54.9787 53.2884 55.2429 51.7798 55.2429 49.8963C55.2429 48.0128 54.9787 46.5128 54.4503 45.3963C53.9219 44.2713 53.142 43.4616 52.1108 42.9673C51.0881 42.4645 49.8267 42.2131 48.3267 42.2131H45.3097V57.6051Z" fill="white"/>
</svg>
