<svg width="117" height="100" viewBox="0 0 117 100" fill="none" xmlns="http://www.w3.org/2000/svg">
<path d="M100 100V78L102 87L102.5 88.5L103.5 90.5L105 92.5L106.5 94L108.5 95.5L110.5 97L112 98L114 99L117 100H100Z" fill="#24ee89"/>
<path d="M0 40C0 17.9086 17.9086 0 40 0H60C82.0914 0 100 17.9086 100 40V100H0V40Z" fill="#24ee89"/>
<path d="M44.6449 63H37.8438L46.6776 36.8182H55.1023L63.9361 63H57.1349L50.9858 43.4148H50.7812L44.6449 63ZM43.7372 52.696H57.9531V57.5028H43.7372V52.696Z" fill="white"/>
</svg>
