<svg width="117" height="100" viewBox="0 0 117 100" fill="none" xmlns="http://www.w3.org/2000/svg">
<path d="M100 100V78L102 87L102.5 88.5L103.5 90.5L105 92.5L106.5 94L108.5 95.5L110.5 97L112 98L114 99L117 100H100Z" fill="#24ee89"/>
<path d="M0 40C0 17.9086 17.9086 0 40 0H60C82.0914 0 100 17.9086 100 40V100H0V40Z" fill="#24ee89"/>
<path d="M40.9815 63V36.8182H51.8991C53.8594 36.8182 55.5 37.0952 56.821 37.6491C58.1506 38.2031 59.1477 38.9787 59.8125 39.9759C60.4858 40.973 60.8224 42.1278 60.8224 43.4403C60.8224 44.4375 60.6136 45.3281 60.196 46.1122C59.7784 46.8878 59.2031 47.5312 58.4702 48.0426C57.7372 48.554 56.8892 48.9119 55.9261 49.1165V49.3722C56.983 49.4233 57.9588 49.7088 58.8537 50.2287C59.7571 50.7486 60.4815 51.473 61.027 52.402C61.5724 53.3224 61.8452 54.4134 61.8452 55.6747C61.8452 57.081 61.4872 58.3381 60.7713 59.446C60.0554 60.5455 59.0199 61.4148 57.6648 62.054C56.3097 62.6847 54.6648 63 52.7301 63H40.9815ZM47.3097 57.8991H51.2216C52.5938 57.8991 53.6037 57.6392 54.2514 57.1193C54.9077 56.5994 55.2358 55.875 55.2358 54.946C55.2358 54.2727 55.0781 53.6932 54.7628 53.2074C54.4474 52.7131 54 52.3338 53.4205 52.0696C52.8409 51.7969 52.1463 51.6605 51.3366 51.6605H47.3097V57.8991ZM47.3097 47.5824H50.8125C51.5028 47.5824 52.1165 47.4673 52.6534 47.2372C53.1903 47.0071 53.608 46.6747 53.9062 46.2401C54.2131 45.8054 54.3665 45.2812 54.3665 44.6676C54.3665 43.7898 54.0554 43.0994 53.4332 42.5966C52.8111 42.0938 51.9716 41.8423 50.9148 41.8423H47.3097V47.5824Z" fill="white"/>
</svg>
