<svg width="80" height="80" viewBox="0 0 80 80" fill="none" xmlns="http://www.w3.org/2000/svg">
  <g id="Frame 1420069151">
    <g id="Group 1420069177">
      <g id="Union">
        <path fill-rule="evenodd" clip-rule="evenodd" d="M16.6836 59.7951C11.6659 54.2964 8.61339 47.0368 8.61339 39.0771C8.61339 21.9116 22.803 7.99609 40.3066 7.99609C57.8104 7.99609 72 21.9116 72 39.0771C72 51.2146 64.9033 61.7226 54.5593 66.8395C48.2305 70.1337 41.0104 72 33.346 72C23.9549 72 15.2308 69.1982 7.99609 64.4004C7.99609 64.4004 12.8477 63.8721 16.6823 59.7963L16.6836 59.7951Z" fill="#24ee89"/>
        <path d="M16.6836 59.7951L17.7316 60.8682L18.769 59.8551L17.7916 58.784L16.6836 59.7951Z..." fill="#232626"/>
      </g>
      <path id="Vector" fill-rule="evenodd" clip-rule="evenodd" d="M55.1905 54.4608C63.39 46.2747 63.39 33.0023 55.1905 24.816C51.3884 21.0201 46.491 18.9856 41.514 18.7102C41.3638 14.9821 43.3739 12.4631 43.3837 12.4508L43.3817 12.4512L43.3832 12.4492C37.6631 13.5524 32.2009 16.3153 27.7716 20.7376C24.3748 24.1289 21.9561 28.1268 20.5142 32.3819C20.7253 31.8238 20.9606 31.2728 21.2203 30.7306C20.9214 31.4915 20.6514 32.269 20.4072 33.0644C18.0059 40.3424 19.7008 48.6727 25.4981 54.4608C33.6977 62.6472 46.9913 62.6472 55.1905 54.4608Z" fill="#232626"/>
      <path id="Vector_2" fill-rule="evenodd" clip-rule="evenodd" d="M29.6875 37.4847V40.0889V41.8236C29.6875 43.555 31.0933 44.9586 32.8276 44.9586C34.5619 44.9586 35.9675 43.555 35.9675 41.8236V40.0863V37.4847C35.9675 35.7536 34.5619 34.3496 32.8276 34.3496C31.0933 34.3496 29.6875 35.7536 29.6875 37.4847Z" fill="#24ee89"/>
      <path id="Vector_3" fill-rule="evenodd" clip-rule="evenodd" d="M45.2305 37.4847V40.0889V41.8236C45.2305 43.5551 46.6364 44.9586 48.3705 44.9586C50.1047 44.9586 51.5106 43.5551 51.5106 41.8236V40.0863V37.4847C51.5106 35.7536 50.1047 34.3496 48.3705 34.3496C46.6364 34.3496 45.2305 35.7536 45.2305 37.4847Z" fill="#24ee89"/>
    </g>
  </g>
</svg>