<svg width="83" height="63" viewBox="0 0 83 63" fill="none" xmlns="http://www.w3.org/2000/svg">
<path d="M41.4926 26.714L41.25 26.5082L41.0074 26.714L9.18097 53.714L8.40186 54.375H9.42357H73.0764H74.0981L73.319 53.714L41.4926 26.714Z" fill="#B3BEC1" stroke="#05012b" stroke-width="0.75"/>
<path d="M40.7648 36.5719L41.25 36.9835L41.7352 36.5719L73.5616 9.57192L75.1198 8.25H73.0764L9.42357 8.25H7.38016L8.93838 9.57192L40.7648 36.5719Z" fill="#645450" stroke="#05012b" stroke-width="1.5"/>
<path d="M51.5057 31.5905L51.1745 31.875L51.5057 32.1595L74.5682 51.9698L75.1875 52.5018V51.6853V12.0647V11.2482L74.5682 11.7802L51.5057 31.5905Z" fill="#B3BEC1" stroke="#05012b" stroke-width="0.75"/>
<path d="M30.9943 32.1595L31.3255 31.875L30.9943 31.5905L7.93185 11.7802L7.3125 11.2482V12.0647L7.3125 51.6853V52.5018L7.93185 51.9698L30.9943 32.1595Z" fill="#B3BEC1" stroke="#05012b" stroke-width="0.75"/>
</svg>
