<svg width="50" height="50" viewBox="0 0 50 50" fill="none" xmlns="http://www.w3.org/2000/svg">
<circle cx="25" cy="25" r="25" fill="#24ee89"/>
<path d="M39.1175 14.7697C39.6607 15.2832 39.9777 15.9914 39.9989 16.7386C40.02 17.4857 39.7436 18.2107 39.2303 18.7541L23.255 35.6692C22.9961 35.9428 22.6849 36.1618 22.34 36.3132C21.995 36.4646 21.6232 36.5453 21.2465 36.5505C20.8698 36.5558 20.4959 36.4855 20.1468 36.3438C19.7977 36.2021 19.4806 35.9919 19.2142 35.7256L10.7566 27.268C10.2587 26.7336 9.98755 26.0268 10.0004 25.2964C10.0133 24.5661 10.3092 23.8692 10.8257 23.3527C11.3422 22.8362 12.0391 22.5403 12.7694 22.5274C13.4998 22.5145 14.2066 22.7856 14.7411 23.2836L21.15 29.6888L35.1331 14.8825C35.6466 14.3393 36.3548 14.0223 37.102 14.0011C37.8492 13.98 38.5741 14.2564 39.1175 14.7697Z" fill="white"/>
</svg>
